#N canvas 509 39 1197 952 12;
#X declare -path bin;
#X declare -path bin64;
#X obj 358 545 unpack f f;
#X obj 274 545 unpack f f;
#X obj 274 516 route 1 2 3 4;
#X obj 12 84 *~ 5;
#X obj 68 142 writesf~;
#X msg 68 55 open voice.wav \, start;
#X msg 88 113 stop;
#N canvas 0 22 450 278 (subpatch) 0;
#X array voiceData 199872 float 4;
#X coords 0 1 199871 -1 200 140 1 0 0;
#X restore 239 77 graph;
#X obj 144 256 soundfiler;
#X floatatom 144 285 10 0 0 0 - - - 0;
#X obj 144 400 phasor~;
#X obj 144 429 *~;
#X obj 144 458 tabread4~ voiceData;
#X msg 67 227 0;
#X obj 144 371 * 1;
#X obj 179 371 t b f;
#X obj 179 318 nbx 5 14 -1e+37 1e+37 0 0 empty empty empty 0 -8 0 10 #fcfcfc #000000 #000000 0 256;
#X text 510 580 decorrelate two oscilators;
#X obj 624 -122 snapshot~;
#X msg 144 227 read -resize voice.wav voiceData;
#X obj 401 -122 snapshot~;
#X obj 12 55 adc~ 1;
#X obj 358 574 pipe 1000;
#X obj 435 574 pipe 1000;
#X obj 1202 225 hsl 128 15 0 1 0 1 empty empty 'roomsize' 20 8 0 10 #fcfcfc #fc8000 #000000 0 0;
#X obj 1488 225 hsl 128 15 0 2 0 1 empty empty damp 20 8 0 10 #fcfcfc #fc8000 #000000 6350 0;
#X obj 1345 225 hsl 128 15 0 1 0 1 empty empty wet 20 8 0 10 #fcfcfc #fc8000 #000000 0 0;
#X obj 1528 250 hsl 128 15 0 1 0 1 empty empty dry 20 8 0 10 #fcfcfc #fc8000 #000000 10160 0;
#N canvas 92 310 634 321 vfreeverb~ 0;
#N canvas 261 41 778 367 combfilters-left1 0;
#X obj 46 244 +~;
#X obj 61 219 *~ 0.3;
#X obj 61 194 lop~ 1000;
#X obj 231 244 +~;
#X obj 246 219 *~ 0.3;
#X obj 246 194 lop~ 1000;
#X obj 429 218 *~ 0.3;
#X obj 429 193 lop~ 1000;
#X obj 414 241 +~;
#X obj 610 218 *~ 0.3;
#X obj 610 193 lop~ 1000;
#X obj 595 241 +~;
#X obj 61 141 delread~ \$0-comb1left;
#X obj 246 142 delread~ \$0-comb2left;
#X obj 429 141 delread~ \$0-comb3left;
#X obj 610 141 delread~ \$0-comb4left;
#X obj 46 268 delwrite~ \$0-comb1left 100;
#X obj 231 268 delwrite~ \$0-comb2left 100;
#X obj 414 267 delwrite~ \$0-comb3left 100;
#X obj 595 267 delwrite~ \$0-comb4left 100;
#X obj 61 97 r \$0-comb1left;
#X obj 246 97 r \$0-comb2left;
#X obj 429 95 r \$0-comb3left;
#X obj 610 96 r \$0-comb4left;
#X obj 112 170 r \$0-frequency;
#X obj 297 170 r \$0-frequency;
#X obj 480 167 r \$0-frequency;
#X obj 661 167 r \$0-frequency;
#X obj 46 28 inlet~;
#X obj 338 326 outlet~;
#X floatatom 70 119 5 0 0 0 - - - 0;
#X floatatom 255 121 5 0 0 0 - - - 0;
#X floatatom 439 119 5 0 0 0 - - - 0;
#X floatatom 622 121 5 0 0 0 - - - 0;
#X obj 279 58 clip 0 0.99;
#X obj 279 29 r \$0-room;
#X connect 0 0 16 0;
#X connect 1 0 0 1;
#X connect 2 0 1 0;
#X connect 3 0 17 0;
#X connect 4 0 3 1;
#X connect 5 0 4 0;
#X connect 6 0 8 1;
#X connect 7 0 6 0;
#X connect 8 0 18 0;
#X connect 9 0 11 1;
#X connect 10 0 9 0;
#X connect 11 0 19 0;
#X connect 12 0 2 0;
#X connect 12 0 29 0;
#X connect 13 0 5 0;
#X connect 13 0 29 0;
#X connect 14 0 7 0;
#X connect 14 0 29 0;
#X connect 15 0 10 0;
#X connect 15 0 29 0;
#X connect 20 0 12 0;
#X connect 20 0 30 0;
#X connect 21 0 13 0;
#X connect 21 0 31 0;
#X connect 22 0 14 0;
#X connect 22 0 32 0;
#X connect 23 0 15 0;
#X connect 23 0 33 0;
#X connect 24 0 2 1;
#X connect 25 0 5 1;
#X connect 26 0 7 1;
#X connect 27 0 10 1;
#X connect 28 0 0 0;
#X connect 28 0 3 0;
#X connect 28 0 8 0;
#X connect 28 0 11 0;
#X connect 34 0 1 1;
#X connect 34 0 4 1;
#X connect 34 0 6 1;
#X connect 34 0 9 1;
#X connect 35 0 34 0;
#X restore 15 100 pd combfilters-left1;
#N canvas 27 56 358 650 diffusor-left 0;
#X obj 51 107 *~ 0.5;
#X obj 36 132 +~;
#X obj 66 132 -~;
#X obj 36 26 inlet~;
#X obj 81 238 *~ 0.5;
#X obj 66 263 +~;
#X obj 96 263 -~;
#X obj 111 368 *~ 0.5;
#X obj 96 393 +~;
#X obj 126 393 -~;
#X obj 141 498 *~ 0.5;
#X obj 126 523 +~;
#X obj 156 523 -~;
#X obj 156 605 outlet~;
#X text 95 28 freeverb's diffusor;
#X obj 156 576 hip~ 5;
#X floatatom 214 70 5 0 0 0 - - - 0;
#X floatatom 246 203 5 0 0 0 - - - 0;
#X floatatom 280 334 5 0 0 0 - - - 0;
#X floatatom 304 464 5 0 0 0 - - - 0;
#X obj 51 53 r \$0-allpass1left;
#X obj 51 80 delread~ \$0-allpass1left;
#X obj 36 158 delwrite~ \$0-allpass1left 40;
#X obj 81 186 r \$0-allpass2left;
#X obj 81 211 delread~ \$0-allpass2left;
#X obj 66 290 delwrite~ \$0-allpass2left 40;
#X obj 111 317 r \$0-allpass3left;
#X obj 111 341 delread~ \$0-allpass3left;
#X obj 96 420 delwrite~ \$0-allpass3left 40;
#X obj 141 447 r \$0-allpass4left;
#X obj 141 471 delread~ \$0-allpass4left;
#X obj 126 550 delwrite~ \$0-allpass4left 40;
#X connect 0 0 1 1;
#X connect 1 0 22 0;
#X connect 2 0 5 0;
#X connect 2 0 6 1;
#X connect 3 0 1 0;
#X connect 3 0 2 1;
#X connect 4 0 5 1;
#X connect 5 0 25 0;
#X connect 6 0 8 0;
#X connect 6 0 9 1;
#X connect 7 0 8 1;
#X connect 8 0 28 0;
#X connect 9 0 11 0;
#X connect 9 0 12 1;
#X connect 10 0 11 1;
#X connect 11 0 31 0;
#X connect 12 0 15 0;
#X connect 15 0 13 0;
#X connect 20 0 16 0;
#X connect 20 0 21 0;
#X connect 21 0 0 0;
#X connect 21 0 2 0;
#X connect 23 0 17 0;
#X connect 23 0 24 0;
#X connect 24 0 4 0;
#X connect 24 0 6 0;
#X connect 26 0 18 0;
#X connect 26 0 27 0;
#X connect 27 0 7 0;
#X connect 27 0 9 0;
#X connect 29 0 19 0;
#X connect 29 0 30 0;
#X connect 30 0 10 0;
#X connect 30 0 12 0;
#X restore 15 168 pd diffusor-left;
#N canvas 312 362 778 367 combfilters-left2 0;
#X obj 46 244 +~;
#X obj 61 219 *~ 0.3;
#X obj 61 194 lop~ 1000;
#X obj 231 244 +~;
#X obj 246 219 *~ 0.3;
#X obj 246 194 lop~ 1000;
#X obj 429 218 *~ 0.3;
#X obj 429 193 lop~ 1000;
#X obj 414 241 +~;
#X obj 610 218 *~ 0.3;
#X obj 610 193 lop~ 1000;
#X obj 595 241 +~;
#X obj 112 170 r \$0-frequency;
#X obj 297 170 r \$0-frequency;
#X obj 480 167 r \$0-frequency;
#X obj 661 167 r \$0-frequency;
#X obj 46 28 inlet~;
#X obj 338 326 outlet~;
#X obj 61 90 r \$0-comb5left;
#X obj 61 141 delread~ \$0-comb5left;
#X obj 46 268 delwrite~ \$0-comb5left 100;
#X obj 246 90 r \$0-comb6left;
#X obj 246 142 delread~ \$0-comb6left;
#X obj 231 268 delwrite~ \$0-comb6left 100;
#X obj 429 88 r \$0-comb7left;
#X obj 429 141 delread~ \$0-comb7left;
#X obj 414 267 delwrite~ \$0-comb7left 100;
#X obj 610 89 r \$0-comb8left;
#X obj 610 141 delread~ \$0-comb8left;
#X obj 595 267 delwrite~ \$0-comb8left 100;
#X floatatom 70 116 5 0 0 0 - - - 0;
#X floatatom 261 118 5 0 0 0 - - - 0;
#X floatatom 440 117 5 0 0 0 - - - 0;
#X floatatom 620 116 5 0 0 0 - - - 0;
#X obj 279 58 clip 0 0.99;
#X obj 279 28 r \$0-room;
#X connect 0 0 20 0;
#X connect 1 0 0 1;
#X connect 2 0 1 0;
#X connect 3 0 23 0;
#X connect 4 0 3 1;
#X connect 5 0 4 0;
#X connect 6 0 8 1;
#X connect 7 0 6 0;
#X connect 8 0 26 0;
#X connect 9 0 11 1;
#X connect 10 0 9 0;
#X connect 11 0 29 0;
#X connect 12 0 2 1;
#X connect 13 0 5 1;
#X connect 14 0 7 1;
#X connect 15 0 10 1;
#X connect 16 0 0 0;
#X connect 16 0 3 0;
#X connect 16 0 8 0;
#X connect 16 0 11 0;
#X connect 18 0 19 0;
#X connect 18 0 30 0;
#X connect 19 0 2 0;
#X connect 19 0 17 0;
#X connect 21 0 22 0;
#X connect 21 0 31 0;
#X connect 22 0 5 0;
#X connect 22 0 17 0;
#X connect 24 0 25 0;
#X connect 24 0 32 0;
#X connect 25 0 7 0;
#X connect 25 0 17 0;
#X connect 27 0 28 0;
#X connect 27 0 33 0;
#X connect 28 0 10 0;
#X connect 28 0 17 0;
#X connect 34 0 1 1;
#X connect 34 0 4 1;
#X connect 34 0 6 1;
#X connect 34 0 9 1;
#X connect 35 0 34 0;
#X restore 36 134 pd combfilters-left2;
#N canvas 261 41 778 367 combfilters-right1 0;
#X obj 46 244 +~;
#X obj 61 219 *~ 0.3;
#X obj 61 194 lop~ 1000;
#X obj 231 244 +~;
#X obj 246 219 *~ 0.3;
#X obj 246 194 lop~ 1000;
#X obj 429 218 *~ 0.3;
#X obj 429 193 lop~ 1000;
#X obj 414 241 +~;
#X obj 610 218 *~ 0.3;
#X obj 610 193 lop~ 1000;
#X obj 595 241 +~;
#X obj 112 170 r \$0-frequency;
#X obj 297 170 r \$0-frequency;
#X obj 480 167 r \$0-frequency;
#X obj 661 167 r \$0-frequency;
#X obj 46 28 inlet~;
#X obj 338 326 outlet~;
#X floatatom 70 119 5 0 0 0 - - - 0;
#X floatatom 255 121 5 0 0 0 - - - 0;
#X floatatom 439 119 5 0 0 0 - - - 0;
#X floatatom 622 121 5 0 0 0 - - - 0;
#X obj 61 141 delread~ \$0-comb1right;
#X obj 246 142 delread~ \$0-comb2right;
#X obj 429 141 delread~ \$0-comb3right;
#X obj 610 141 delread~ \$0-comb4right;
#X obj 61 97 r \$0-comb1right;
#X obj 246 97 r \$0-comb2right;
#X obj 429 95 r \$0-comb3right;
#X obj 610 97 r \$0-comb4right;
#X obj 46 268 delwrite~ \$0-comb1right 100;
#X obj 231 268 delwrite~ \$0-comb2right 100;
#X obj 414 267 delwrite~ \$0-comb3right 100;
#X obj 595 267 delwrite~ \$0-comb4right 100;
#X obj 279 58 clip 0 0.99;
#X obj 279 28 r \$0-room;
#X connect 0 0 30 0;
#X connect 1 0 0 1;
#X connect 2 0 1 0;
#X connect 3 0 31 0;
#X connect 4 0 3 1;
#X connect 5 0 4 0;
#X connect 6 0 8 1;
#X connect 7 0 6 0;
#X connect 8 0 32 0;
#X connect 9 0 11 1;
#X connect 10 0 9 0;
#X connect 11 0 33 0;
#X connect 12 0 2 1;
#X connect 13 0 5 1;
#X connect 14 0 7 1;
#X connect 15 0 10 1;
#X connect 16 0 0 0;
#X connect 16 0 3 0;
#X connect 16 0 8 0;
#X connect 16 0 11 0;
#X connect 22 0 2 0;
#X connect 22 0 17 0;
#X connect 23 0 5 0;
#X connect 23 0 17 0;
#X connect 24 0 7 0;
#X connect 24 0 17 0;
#X connect 25 0 10 0;
#X connect 25 0 17 0;
#X connect 26 0 18 0;
#X connect 26 0 22 0;
#X connect 27 0 19 0;
#X connect 27 0 23 0;
#X connect 28 0 20 0;
#X connect 28 0 24 0;
#X connect 29 0 21 0;
#X connect 29 0 25 0;
#X connect 34 0 1 1;
#X connect 34 0 4 1;
#X connect 34 0 6 1;
#X connect 34 0 9 1;
#X connect 35 0 34 0;
#X restore 208 99 pd combfilters-right1;
#N canvas 312 362 778 367 combfilters-right2 0;
#X obj 46 244 +~;
#X obj 61 219 *~ 0.3;
#X obj 61 194 lop~ 1000;
#X obj 231 244 +~;
#X obj 246 219 *~ 0.3;
#X obj 246 194 lop~ 1000;
#X obj 429 218 *~ 0.3;
#X obj 429 193 lop~ 1000;
#X obj 414 241 +~;
#X obj 610 218 *~ 0.3;
#X obj 610 193 lop~ 1000;
#X obj 595 241 +~;
#X obj 112 170 r \$0-frequency;
#X obj 297 170 r \$0-frequency;
#X obj 480 167 r \$0-frequency;
#X obj 661 167 r \$0-frequency;
#X obj 46 28 inlet~;
#X obj 338 326 outlet~;
#X floatatom 70 116 5 0 0 0 - - - 0;
#X floatatom 261 118 5 0 0 0 - - - 0;
#X floatatom 440 117 5 0 0 0 - - - 0;
#X floatatom 620 116 5 0 0 0 - - - 0;
#X obj 279 58 clip 0 0.99;
#X obj 61 90 r \$0-comb5right;
#X obj 246 90 r \$0-comb6right;
#X obj 429 88 r \$0-comb7right;
#X obj 610 89 r \$0-comb8right;
#X obj 61 141 delread~ \$0-comb5right;
#X obj 246 142 delread~ \$0-comb6right;
#X obj 429 141 delread~ \$0-comb7right;
#X obj 610 141 delread~ \$0-comb8right;
#X obj 46 268 delwrite~ \$0-comb5right 100;
#X obj 231 268 delwrite~ \$0-comb6right 100;
#X obj 414 267 delwrite~ \$0-comb7right 100;
#X obj 595 267 delwrite~ \$0-comb8right 100;
#X obj 279 28 r \$0-room;
#X connect 0 0 31 0;
#X connect 1 0 0 1;
#X connect 2 0 1 0;
#X connect 3 0 32 0;
#X connect 4 0 3 1;
#X connect 5 0 4 0;
#X connect 6 0 8 1;
#X connect 7 0 6 0;
#X connect 8 0 33 0;
#X connect 9 0 11 1;
#X connect 10 0 9 0;
#X connect 11 0 34 0;
#X connect 12 0 2 1;
#X connect 13 0 5 1;
#X connect 14 0 7 1;
#X connect 15 0 10 1;
#X connect 16 0 0 0;
#X connect 16 0 3 0;
#X connect 16 0 8 0;
#X connect 16 0 11 0;
#X connect 22 0 1 1;
#X connect 22 0 4 1;
#X connect 22 0 6 1;
#X connect 22 0 9 1;
#X connect 23 0 18 0;
#X connect 23 0 27 0;
#X connect 24 0 19 0;
#X connect 24 0 28 0;
#X connect 25 0 20 0;
#X connect 25 0 29 0;
#X connect 26 0 21 0;
#X connect 26 0 30 0;
#X connect 27 0 2 0;
#X connect 27 0 17 0;
#X connect 28 0 5 0;
#X connect 28 0 17 0;
#X connect 29 0 7 0;
#X connect 29 0 17 0;
#X connect 30 0 10 0;
#X connect 30 0 17 0;
#X connect 35 0 22 0;
#X restore 225 133 pd combfilters-right2;
#N canvas 27 56 358 650 diffusor-right 0;
#X obj 51 107 *~ 0.5;
#X obj 36 132 +~;
#X obj 66 132 -~;
#X obj 36 26 inlet~;
#X obj 81 238 *~ 0.5;
#X obj 66 263 +~;
#X obj 96 263 -~;
#X obj 111 368 *~ 0.5;
#X obj 96 393 +~;
#X obj 126 393 -~;
#X obj 141 498 *~ 0.5;
#X obj 126 523 +~;
#X obj 156 523 -~;
#X obj 156 605 outlet~;
#X text 95 28 freeverb's diffusor;
#X obj 156 576 hip~ 5;
#X floatatom 214 70 5 0 0 0 - - - 0;
#X floatatom 244 203 5 0 0 0 - - - 0;
#X floatatom 280 334 5 0 0 0 - - - 0;
#X floatatom 304 464 5 0 0 0 - - - 0;
#X obj 51 53 r \$0-allpass1right;
#X obj 51 80 delread~ \$0-allpass1right;
#X obj 36 158 delwrite~ \$0-allpass1right 40;
#X obj 81 186 r \$0-allpass2right;
#X obj 81 211 delread~ \$0-allpass2right;
#X obj 66 290 delwrite~ \$0-allpass2right 40;
#X obj 111 317 r \$0-allpass3right;
#X obj 111 341 delread~ \$0-allpass3right;
#X obj 96 420 delwrite~ \$0-allpass3right 40;
#X obj 141 447 r \$0-allpass4right;
#X obj 141 471 delread~ \$0-allpass4right;
#X obj 126 550 delwrite~ \$0-allpass4right 40;
#X connect 0 0 1 1;
#X connect 1 0 22 0;
#X connect 2 0 5 0;
#X connect 2 0 6 1;
#X connect 3 0 1 0;
#X connect 3 0 2 1;
#X connect 4 0 5 1;
#X connect 5 0 25 0;
#X connect 6 0 8 0;
#X connect 6 0 9 1;
#X connect 7 0 8 1;
#X connect 8 0 28 0;
#X connect 9 0 11 0;
#X connect 9 0 12 1;
#X connect 10 0 11 1;
#X connect 11 0 31 0;
#X connect 12 0 15 0;
#X connect 15 0 13 0;
#X connect 20 0 16 0;
#X connect 20 0 21 0;
#X connect 21 0 0 0;
#X connect 21 0 2 0;
#X connect 23 0 17 0;
#X connect 23 0 24 0;
#X connect 24 0 4 0;
#X connect 24 0 6 0;
#X connect 26 0 18 0;
#X connect 26 0 27 0;
#X connect 27 0 7 0;
#X connect 27 0 9 0;
#X connect 29 0 19 0;
#X connect 29 0 30 0;
#X connect 30 0 10 0;
#X connect 30 0 12 0;
#X restore 208 169 pd diffusor-right;
#X obj 208 61 *~ 0.015;
#X obj 15 226 *~ 1;
#X obj 208 228 *~ 1;
#X obj 94 228 *~ 1;
#X obj 169 228 *~ 1;
#X obj 115 202 r \$0-dry;
#X obj 229 203 r \$0-wet;
#X obj 36 201 r \$0-wet;
#X obj 94 14 inlet~;
#X obj 208 14 inlet~;
#X obj 15 268 outlet~;
#X obj 169 269 outlet~;
#X obj 312 14 inlet;
#X obj 374 14 inlet;
#X obj 462 14 inlet;
#X obj 544 16 inlet;
#N canvas 0 23 207 207 room 0;
#X obj 32 35 inlet;
#X obj 32 63 * 0.28;
#X obj 32 94 + 0.7;
#X obj 32 160 outlet;
#X text 80 65 scaleroom;
#X text 76 94 offsetroom;
#X obj 47 126 s \$0-room;
#X connect 0 0 1 0;
#X connect 1 0 2 0;
#X connect 2 0 3 0;
#X connect 2 0 6 0;
#X restore 312 45 pd room;
#N canvas 684 169 244 376 frequency 0;
#X obj 60 222 samplerate~;
#X obj 33 8 inlet;
#X obj 33 194 t f b;
#X obj 33 249 *;
#X obj 53 303 s \$0-frequency;
#X obj 33 327 outlet;
#X obj 33 64 * 0.4;
#X text 76 66 scaledamp;
#X obj 33 38 clip 0 2;
#X obj 33 90 t b f;
#X obj 33 141 -;
#X msg 33 116 1;
#X obj 33 168 abs;
#X obj 33 275 * 0.5;
#X text 153 303 for [lop~];
#X connect 0 0 3 1;
#X connect 1 0 8 0;
#X connect 2 0 3 0;
#X connect 2 1 0 0;
#X connect 3 0 13 0;
#X connect 6 0 9 0;
#X connect 8 0 6 0;
#X connect 9 0 11 0;
#X connect 9 1 10 1;
#X connect 10 0 12 0;
#X connect 11 0 10 0;
#X connect 12 0 2 0;
#X connect 13 0 5 0;
#X connect 13 0 4 0;
#X restore 374 45 pd frequency;
#N canvas 0 23 170 187 scalewet 0;
#X obj 22 42 inlet;
#X obj 22 143 outlet;
#X obj 22 73 * 3;
#X text 49 74 scalewet;
#X obj 40 112 s \$0-wet;
#X connect 0 0 2 0;
#X connect 2 0 1 0;
#X connect 2 0 4 0;
#X restore 544 45 pd scalewet;
#N canvas 0 23 220 198 scaledry 0;
#X obj 32 74 * 2;
#X obj 32 40 inlet;
#X obj 32 141 outlet;
#X text 58 75 scaledry;
#X obj 41 105 s \$0-dry;
#X connect 0 0 2 0;
#X connect 0 0 4 0;
#X connect 1 0 0 0;
#X restore 462 45 pd scaledry;
#X floatatom 312 70 5 0 0 0 - - - 0;
#X floatatom 374 70 10 0 0 0 - - - 0;
#X floatatom 462 69 5 0 0 0 - - - 0;
#X floatatom 544 69 5 0 0 0 - - - 0;
#N canvas 405 27 635 684 tuning 0;
#X msg 332 81 1139 \, 1211 \, 1300 \, 1379 \, 1445 \, 1514 \, 1580 \, 1640;
#X text 72 57 combfilter tunings left;
#X text 377 56 combfilter tunings right;
#X text 71 360 allpass tunings left;
#X text 383 355 allpass tunings right;
#N canvas 243 170 195 233 sampstoms 0;
#X obj 27 21 inlet;
#X obj 54 86 samplerate~;
#X obj 27 111 /;
#X obj 27 57 t f b;
#X obj 27 136 * 1000;
#X obj 27 162 outlet;
#X connect 0 0 3 0;
#X connect 1 0 2 1;
#X connect 2 0 4 0;
#X connect 3 0 2 0;
#X connect 3 1 1 0;
#X connect 4 0 5 0;
#X restore 30 107 pd sampstoms;
#X msg 30 82 1116 \, 1188 \, 1277 \, 1356 \, 1422 \, 1491 \, 1557 \, 1617;
#X obj 57 188 +;
#X msg 57 159 1;
#X obj 30 135 t f b;
#X obj 87 188 f;
#X obj 30 56 t b b;
#X msg 87 159 0;
#X obj 57 212 pack f \$0;
#X msg 57 238 \$2-comb\$1left;
#X obj 30 282 s;
#X obj 57 265 symbol;
#N canvas 0 22 195 233 sampstoms 0;
#X obj 27 21 inlet;
#X obj 54 86 samplerate~;
#X obj 27 111 /;
#X obj 27 57 t f b;
#X obj 27 136 * 1000;
#X obj 27 162 outlet;
#X connect 0 0 3 0;
#X connect 1 0 2 1;
#X connect 2 0 4 0;
#X connect 3 0 2 0;
#X connect 3 1 1 0;
#X connect 4 0 5 0;
#X restore 332 107 pd sampstoms;
#X obj 359 188 +;
#X msg 359 159 1;
#X obj 332 135 t f b;
#X obj 389 188 f;
#X msg 389 159 0;
#X obj 359 212 pack f \$0;
#X obj 332 282 s;
#X obj 359 265 symbol;
#X obj 332 56 t b b;
#X msg 359 238 \$2-comb\$1right;
#X obj 30 360 t b b;
#N canvas 0 22 195 233 sampstoms 0;
#X obj 27 21 inlet;
#X obj 54 86 samplerate~;
#X obj 27 111 /;
#X obj 27 57 t f b;
#X obj 27 136 * 1000;
#X obj 27 162 outlet;
#X connect 0 0 3 0;
#X connect 1 0 2 1;
#X connect 2 0 4 0;
#X connect 3 0 2 0;
#X connect 3 1 1 0;
#X connect 4 0 5 0;
#X restore 30 411 pd sampstoms;
#X obj 57 492 +;
#X msg 57 463 1;
#X obj 30 439 t f b;
#X obj 87 492 f;
#X msg 87 463 0;
#X obj 57 516 pack f \$0;
#X obj 30 586 s;
#X obj 57 569 symbol;
#X obj 334 356 t b b;
#N canvas 0 22 195 233 sampstoms 0;
#X obj 27 21 inlet;
#X obj 54 86 samplerate~;
#X obj 27 111 /;
#X obj 27 57 t f b;
#X obj 27 136 * 1000;
#X obj 27 162 outlet;
#X connect 0 0 3 0;
#X connect 1 0 2 1;
#X connect 2 0 4 0;
#X connect 3 0 2 0;
#X connect 3 1 1 0;
#X connect 4 0 5 0;
#X restore 334 407 pd sampstoms;
#X obj 361 488 +;
#X msg 361 459 1;
#X obj 334 435 t f b;
#X obj 391 488 f;
#X msg 391 459 0;
#X obj 361 512 pack f \$0;
#X obj 334 582 s;
#X obj 361 565 symbol;
#X obj 30 22 loadbang;
#X obj 332 27 loadbang;
#X obj 30 334 loadbang;
#X obj 334 331 loadbang;
#X obj 268 41 bng 15 250 50 0 empty empty empty 17 7 0 10 #fcfcfc #000000 #000000;
#X msg 30 386 225 \, 556 \, 441 \, 341;
#X msg 334 380 248 \, 579 \, 464 \, 364;
#X msg 57 542 \$2-allpass\$1left;
#X msg 361 539 \$2-allpass\$1right;
#X text 27 624 Original Freeverb delay line lengths are converted to milliseconds \, based on samplerate.;
#X connect 0 0 17 0;
#X connect 5 0 9 0;
#X connect 6 0 5 0;
#X connect 7 0 10 0;
#X connect 7 0 13 0;
#X connect 8 0 7 0;
#X connect 9 0 15 0;
#X connect 9 1 8 0;
#X connect 10 0 7 1;
#X connect 11 0 6 0;
#X connect 11 1 12 0;
#X connect 12 0 10 0;
#X connect 13 0 14 0;
#X connect 14 0 16 0;
#X connect 16 0 15 1;
#X connect 17 0 20 0;
#X connect 18 0 21 0;
#X connect 18 0 23 0;
#X connect 19 0 18 0;
#X connect 20 0 24 0;
#X connect 20 1 19 0;
#X connect 21 0 18 1;
#X connect 22 0 21 0;
#X connect 23 0 27 0;
#X connect 25 0 24 1;
#X connect 26 0 0 0;
#X connect 26 1 22 0;
#X connect 27 0 25 0;
#X connect 28 0 53 0;
#X connect 28 1 34 0;
#X connect 29 0 32 0;
#X connect 30 0 33 0;
#X connect 30 0 35 0;
#X connect 31 0 30 0;
#X connect 32 0 36 0;
#X connect 32 1 31 0;
#X connect 33 0 30 1;
#X connect 34 0 33 0;
#X connect 35 0 55 0;
#X connect 37 0 36 1;
#X connect 38 0 54 0;
#X connect 38 1 44 0;
#X connect 39 0 42 0;
#X connect 40 0 43 0;
#X connect 40 0 45 0;
#X connect 41 0 40 0;
#X connect 42 0 46 0;
#X connect 42 1 41 0;
#X connect 43 0 40 1;
#X connect 44 0 43 0;
#X connect 45 0 56 0;
#X connect 47 0 46 1;
#X connect 48 0 11 0;
#X connect 49 0 26 0;
#X connect 50 0 28 0;
#X connect 51 0 38 0;
#X connect 52 0 11 0;
#X connect 52 0 28 0;
#X connect 52 0 26 0;
#X connect 52 0 38 0;
#X connect 53 0 29 0;
#X connect 54 0 39 0;
#X connect 55 0 37 0;
#X connect 56 0 47 0;
#X restore 410 141 pd tuning;
#X connect 0 0 1 0;
#X connect 1 0 7 0;
#X connect 2 0 1 0;
#X connect 3 0 5 0;
#X connect 4 0 5 0;
#X connect 5 0 8 0;
#X connect 6 0 3 0;
#X connect 6 0 0 0;
#X connect 6 0 4 0;
#X connect 6 0 2 0;
#X connect 7 0 16 0;
#X connect 8 0 17 0;
#X connect 9 0 16 0;
#X connect 10 0 17 0;
#X connect 11 0 10 1;
#X connect 11 0 9 1;
#X connect 12 0 8 1;
#X connect 13 0 7 1;
#X connect 14 0 6 0;
#X connect 14 0 9 0;
#X connect 15 0 6 0;
#X connect 15 0 10 0;
#X connect 18 0 22 0;
#X connect 19 0 23 0;
#X connect 20 0 25 0;
#X connect 21 0 24 0;
#X connect 22 0 26 0;
#X connect 23 0 27 0;
#X connect 24 0 29 0;
#X connect 25 0 28 0;
#X restore 1254 321 pd vfreeverb~;
#X msg 1525 196 0.8;
#X msg 1485 196 1;
#X obj 529 43 snapshot~;
#X obj 274 721 delwrite~ G09-delA 5000;
#X obj 358 692 delwrite~ G09-delB 5000;
#X obj 228 283 + 0.4;
#X obj 228 256 * 1.6;
#X obj 549 266 loadbang;
#X msg 619 295 1;
#X msg 928 292 0;
#X obj 1269 -151 hsl 395 140 0 88199 0 0 empty \$0-slider empty -2 -8 0 10 #fcfcfc #fc8000 #000000 0 1;
#X msg 1676 -151 const 0;
#N canvas 0 23 450 300 (subpatch) 0;
#X array \$0-ipokebuf1 88200 float 2;
#X coords 0 1 88200 -1 400 140 1;
#X restore 1266 -151 graph;
#X text 1730 -151 clear buffer;
#X obj 1270 9 hsl 395 140 0 88199 0 0 empty \$0-slider empty -2 -8 0 10 #fcfcfc #fc8000 #000000 0 1;
#X msg 1677 9 const 0;
#N canvas 0 23 450 300 (subpatch) 0;
#X array \$0-ipokebuf2 88200 float 2;
#X coords 0 1 88200 -1 400 140 1 0 0;
#X restore 1266 9 graph;
#X obj 1676 -122 s \$0-ipokebuf1;
#X obj 753 383 * 18;
#X obj 937 -122 snapshot~;
#X text -283 538 Freeverb implemented with Pd vanilla objects - Katja Vetter May 2012;
#X text -283 487 BIRD TRANSLATOR - marylou petot - 2020 - used with Bela hardware;
#X obj 1090 -122 snapshot~;
#X obj 144 487 fiddle~ 1024 1 20 4;
#X msg -193 -107 \; window 100 \; delay 0;
#X obj 601 499 *~;
#X obj 912 499 *~;
#X obj 1010 -151 metro 50;
#X obj 459 14 metro 50;
#X obj 458 -151 metro 50;
#X obj 711 -151 metro 100;
#X obj 1388 335 loadbang;
#X msg 1388 364 threshold -12 \, ratio 40 \, response 40 \, gain 0 \, rmspeak 0 \, lookahead 0;
#X obj 1677 38 s \$0-ipokebuf2;
#X obj 753 412 + 3;
#X obj 895 383 * 0.3;
#X msg -282 139 open birbs.wav \, start;
#X msg -242 168 stop;
#X obj -282 197 writesf~ 2;
#X msg -193 -150 \; pd dsp 1;
#X obj 162 -93 s stopped;
#X obj 88 84 r stopped;
#X obj 67 198 r stopped;
#X obj 201 -122 s started;
#X obj 144 198 r started;
#X obj 928 266 r stopped;
#X obj 619 266 r started;
#X obj 124 -64 s record;
#X obj 68 26 r record;
#X obj 386 227 r speed;
#X obj 401 -93 s speed;
#X obj 624 -93 s gap;
#X obj 895 354 r feedback;
#X obj 1090 -93 s feedback;
#X obj -283 -179 loadbang;
#X obj -283 -50 tgl 19 0 empty empty empty 0 -10 0 12 #fcfcfc #000000 #000000 0 1;
#X obj -283 -21 metro 500;
#X obj -192 -21 metro 100;
#X obj -192 3 s birb-eval;
#X obj -283 3 s birb-sync;
#X obj 183 598 loadbang;
#X msg 183 622 2;
#X obj 183 545 phasor~ 440;
#X obj 463 603 r gap;
#X obj 463 632 * 0.9;
#X obj 274 663 birb-voice;
#X obj 358 663 birb-voice;
#X obj 753 354 r delaymod;
#X obj 937 -93 s delaymod;
#N canvas 1 51 420 192 searchpatch 0;
#X obj 36 95 declare -path bin;
#X obj 36 129 declare -path bin64;
#X text 34 31 Find path to [ipoke~] executables. If you want to use [ipoke~] in your own patches \, copy or move the executable for your platform in Pd's 'extra' directory.;
#X restore -283 -208 pd searchpatch;
#X obj -282 81 r notes;
#X obj -282 110 select 61 63;
#X text -284 34 start rendering: C#0;
#X text -284 60 stop rendering: D#0;
#X obj 144 342 expr $f2 / $f1;
#X obj 290 291 loadbang;
#X obj 290 315 samplerate~;
#X obj 601 441 r~ \$0-pshift-delA;
#X obj 912 441 r~ \$0-pshift-delB;
#X obj 795 72 s reverbmod;
#X obj 1199 196 r reverbmod;
#X obj 611 470 birb-poke~ \$0-ipokebuf1 \$0-draw \$0-slider;
#X obj 922 470 birb-poke~ \$0-ipokebuf2 \$0-draw \$0-slider;
#X obj 912 528 s~ verbB;
#X obj 601 528 s~ verbA;
#X obj 1271 292 r~ verbB;
#X obj 1254 263 r~ verbA;
#X obj 1485 167 loadbang;
#X obj -4 -180 ctlin;
#X obj 12 -151 select 9 10 11;
#X obj 124 -180 key;
#X obj 281 -209 ctlin 21;
#X obj 281 -180 / 127;
#X obj 284 -151 hsl 162 19 0 1 0 0 empty empty empty -2 -10 0 12 #c6ffc7 #000000 #000000 0 1;
#X obj 534 -180 / 127;
#X obj 537 -151 hsl 162 19 0 1 0 0 empty empty empty -2 -10 0 12 #c6ffc7 #000000 #000000 0 1;
#X obj 534 -209 ctlin 22;
#X text 331 -178 Speed;
#X obj 833 -180 / 127;
#X obj 836 -151 hsl 162 19 0 1 0 0 empty empty empty -2 -10 0 12 #c6ffc7 #000000 #000000 0 1;
#X obj 833 -209 ctlin 23;
#X obj 124 -151 select 122 120 99;
#X obj 1090 -180 / 127;
#X obj 1093 -151 hsl 162 19 0 1 0 0 empty empty empty -2 -10 0 12 #c6ffc7 #000000 #000000 0 1;
#X obj 1090 -209 ctlin 24;
#X obj 529 -15 / 127;
#X obj 532 14 hsl 162 19 0 1 0 0 empty empty empty -2 -10 0 12 #c6ffc7 #000000 #000000 0 1;
#X text 584 -180 Gap;
#X text 886 -180 Delay;
#X text 1140 -178 Feedback;
#X text 580 -14 Pitch shift;
#X obj 529 -44 ctlin 26;
#X obj 795 -15 / 127;
#X obj 798 14 hsl 162 19 0 1 0 0 empty empty empty -2 -10 0 12 #c6ffc7 #000000 #000000 0 1;
#X obj 795 -44 ctlin 25;
#X text 846 -14 Reverb;
#X obj 725 14 metro 20;
#X obj 795 43 snapshot~;
#X obj 549 198 birb-pitch-shifter G09-delA;
#X obj 752 198 birb-pitch-shifter G09-delB;
#X obj 549 227 s~ \$0-pshift-delA;
#X obj 752 227 s~ \$0-pshift-delB;
#X obj 529 72 s pitchshiftmod;
#X obj 549 169 r pitchshiftmod;
#X obj 1062 -15 / 127;
#X obj 1065 14 hsl 162 19 0 1 0 0 empty empty empty -2 -10 0 12 #ff8300 #000000 #000000 0 1;
#X obj 1062 43 snapshot~;
#X text 1113 -14 Volume;
#X obj 1062 -44 ctlin 48;
#X obj 1062 72 * 0.7;
#X obj 1062 101 s volume;
#X obj 1254 436 *~;
#X obj 1373 436 *~;
#X obj 1492 407 r volume;
#X obj 458 -180 r smetro;
#X obj 711 -180 r smetro;
#X obj 1010 -180 r smetro;
#X obj 459 -15 r smetro;
#X obj 725 -15 r smetro;
#X text -283 589 Organelle and desktop port - Pedro Figueiredo - 2025;
#X obj 1296 465 dac~;
#X obj 1254 407 compressor~ 1;
#X obj 1373 407 compressor~ 2;
#X text 8 -202 record (z) \, stop (x) \, play (c);
#X obj -193 -50 s smetro;
#X connect 0 0 22 0;
#X connect 0 1 23 0;
#X connect 1 0 94 0;
#X connect 1 1 94 2;
#X connect 2 0 1 0;
#X connect 2 1 0 0;
#X connect 3 0 4 0;
#X connect 5 0 4 0;
#X connect 6 0 4 0;
#X connect 8 0 9 0;
#X connect 9 0 11 1;
#X connect 9 0 103 0;
#X connect 10 0 11 0;
#X connect 11 0 12 0;
#X connect 12 0 52 0;
#X connect 13 0 9 0;
#X connect 14 0 10 0;
#X connect 15 0 14 0;
#X connect 15 1 14 1;
#X connect 16 0 15 0;
#X connect 18 0 80 0;
#X connect 19 0 8 0;
#X connect 20 0 79 0;
#X connect 21 0 3 0;
#X connect 22 0 95 0;
#X connect 23 0 95 2;
#X connect 24 0 28 2;
#X connect 25 0 28 3;
#X connect 26 0 28 5;
#X connect 27 0 28 4;
#X connect 28 0 170 0;
#X connect 28 1 171 0;
#X connect 29 0 27 0;
#X connect 30 0 25 0;
#X connect 31 0 151 0;
#X connect 34 0 16 0;
#X connect 35 0 34 0;
#X connect 36 0 37 0;
#X connect 37 0 54 1;
#X connect 37 0 55 1;
#X connect 38 0 54 1;
#X connect 38 0 55 1;
#X connect 40 0 46 0;
#X connect 44 0 62 0;
#X connect 47 0 63 0;
#X connect 48 0 97 0;
#X connect 51 0 82 0;
#X connect 52 4 2 0;
#X connect 54 0 113 0;
#X connect 55 0 112 0;
#X connect 56 0 48 0;
#X connect 56 0 51 0;
#X connect 56 0 155 0;
#X connect 57 0 31 0;
#X connect 58 0 20 0;
#X connect 59 0 18 0;
#X connect 60 0 61 0;
#X connect 61 0 170 1;
#X connect 61 0 171 1;
#X connect 63 0 110 1;
#X connect 63 0 111 1;
#X connect 64 0 110 2;
#X connect 64 0 111 2;
#X connect 65 0 67 0;
#X connect 66 0 67 0;
#X connect 70 0 6 0;
#X connect 71 0 13 0;
#X connect 73 0 19 0;
#X connect 74 0 38 0;
#X connect 75 0 37 0;
#X connect 77 0 5 0;
#X connect 78 0 35 1;
#X connect 81 0 64 0;
#X connect 83 0 68 0;
#X connect 83 0 53 0;
#X connect 83 0 84 0;
#X connect 83 0 173 0;
#X connect 84 0 85 0;
#X connect 84 0 86 0;
#X connect 85 0 88 0;
#X connect 86 0 87 0;
#X connect 89 0 90 0;
#X connect 90 0 95 1;
#X connect 91 0 94 3;
#X connect 91 0 95 3;
#X connect 92 0 93 0;
#X connect 93 0 94 4;
#X connect 93 0 95 4;
#X connect 94 0 32 0;
#X connect 95 0 33 0;
#X connect 96 0 47 0;
#X connect 99 0 100 0;
#X connect 100 0 65 0;
#X connect 100 1 66 0;
#X connect 103 0 14 0;
#X connect 104 0 105 0;
#X connect 105 0 103 1;
#X connect 106 0 54 0;
#X connect 106 0 110 0;
#X connect 107 0 55 0;
#X connect 107 0 111 0;
#X connect 109 0 24 0;
#X connect 109 0 26 0;
#X connect 110 0 54 0;
#X connect 111 0 55 0;
#X connect 114 0 28 1;
#X connect 115 0 28 0;
#X connect 116 0 30 0;
#X connect 116 0 29 0;
#X connect 117 1 118 0;
#X connect 118 0 76 0;
#X connect 118 1 69 0;
#X connect 118 2 72 0;
#X connect 119 0 130 0;
#X connect 120 0 121 0;
#X connect 121 0 122 0;
#X connect 122 0 20 0;
#X connect 123 0 124 0;
#X connect 124 0 18 0;
#X connect 125 0 123 0;
#X connect 127 0 128 0;
#X connect 128 0 48 0;
#X connect 129 0 127 0;
#X connect 130 0 76 0;
#X connect 130 1 69 0;
#X connect 130 2 72 0;
#X connect 131 0 132 0;
#X connect 132 0 51 0;
#X connect 133 0 131 0;
#X connect 134 0 135 0;
#X connect 135 0 31 0;
#X connect 140 0 134 0;
#X connect 141 0 142 0;
#X connect 142 0 146 0;
#X connect 143 0 141 0;
#X connect 145 0 146 0;
#X connect 146 0 108 0;
#X connect 147 0 149 0;
#X connect 148 0 150 0;
#X connect 152 0 147 0;
#X connect 153 0 154 0;
#X connect 154 0 155 0;
#X connect 155 0 158 0;
#X connect 157 0 153 0;
#X connect 158 0 159 0;
#X connect 160 0 169 0;
#X connect 161 0 169 1;
#X connect 162 0 161 1;
#X connect 162 0 160 1;
#X connect 163 0 58 0;
#X connect 164 0 59 0;
#X connect 165 0 56 0;
#X connect 166 0 57 0;
#X connect 167 0 145 0;
#X connect 170 0 160 0;
#X connect 171 0 161 0;
#X coords 0 0 1 1 85 60 0;
