#N canvas 49 89 795 582 12;
#X obj 349 309 *~;
#X obj 467 208 line~;
#X obj 349 285 osc~;
#X obj 349 207 samphold~;
#X obj 349 178 sig~;
#X obj 114 236 snapshot~;
#X obj 349 359 vcf~;
#X msg 467 179 \$1 80;
#X obj 114 294 line~;
#X obj 350 484 *~;
#X obj 452 449 line~;
#X msg 452 420 \$1 10;
#X obj 452 391 expr ($f2-int($f2))>$f3;
#X obj 467 150 * 10;
#X msg 114 265 \$1 80;
#X obj 349 149 * 4;
#X obj 349 61 inlet;
#X obj 467 61 inlet;
#X obj 350 510 outlet~;
#X obj 398 61 inlet;
#X obj 536 61 inlet~;
#X obj 398 120 t b f;
#X text 255 273 bandwitdh;
#X msg 219 267 30;
#X obj 612 61 inlet;
#X obj 349 90 f;
#X obj 398 91 f;
#X obj 467 90 f;
#X obj 612 90 f;
#X obj 612 359 t b f;
#X obj 219 296 nbx 5 17 -1e+37 1e+37 0 0 empty empty empty 0 -10 0 12 #fcfcfc #000000 #000000 0 256;
#X obj 219 61 loadbang;
#X obj 452 362 r birb-eval;
#X obj 114 207 r birb-sync;
#X connect 0 0 6 0;
#X connect 1 0 0 1;
#X connect 2 0 0 0;
#X connect 3 0 5 0;
#X connect 3 0 2 0;
#X connect 4 0 3 0;
#X connect 5 0 14 0;
#X connect 6 0 9 0;
#X connect 7 0 1 0;
#X connect 8 0 6 1;
#X connect 9 0 18 0;
#X connect 10 0 9 1;
#X connect 11 0 10 0;
#X connect 12 0 11 0;
#X connect 13 0 7 0;
#X connect 14 0 8 0;
#X connect 15 0 4 0;
#X connect 16 0 25 0;
#X connect 17 0 27 0;
#X connect 19 0 26 0;
#X connect 20 0 3 1;
#X connect 21 0 15 0;
#X connect 21 1 15 1;
#X connect 23 0 30 0;
#X connect 24 0 28 0;
#X connect 25 0 12 1;
#X connect 25 0 15 0;
#X connect 26 0 21 0;
#X connect 27 0 13 0;
#X connect 28 0 29 0;
#X connect 29 0 12 0;
#X connect 29 1 12 2;
#X connect 30 0 6 2;
#X connect 31 0 23 0;
#X connect 32 0 12 0;
#X connect 33 0 5 0;
