#N canvas 188 474 280 155 12;
#X obj 19 17 inlet;
#X obj 19 65 phasor~;
#X obj 19 89 *~;
#X obj 82 17 loadbang;
#X obj 82 41 samplerate~;
#X obj 82 65 * 2;
#X obj 218 17 inlet;
#X obj 19 113 outlet~;
#X obj 19 41 * 0.5;
#N canvas 121 160 300 186 draw 0;
#X obj 37 37 inlet~;
#X obj 172 37 tgl 19 0 empty empty empty 0 -10 0 12 #fcfcfc #000000 #000000 0 1;
#X obj 172 61 metro 50;
#X obj 172 85 snapshot~;
#X obj 37 85 snapshot~;
#X obj 37 109 bang;
#X obj 93 37 inlet;
#X obj 93 61 metro 500;
#X obj 37 133 s \$1;
#X obj 172 109 s \$2;
#X obj 172 8 loadbang;
#X connect 0 0 3 0;
#X connect 0 0 4 0;
#X connect 1 0 2 0;
#X connect 2 0 3 0;
#X connect 3 0 9 0;
#X connect 4 0 5 0;
#X connect 5 0 8 0;
#X connect 6 0 7 0;
#X connect 7 0 4 0;
#X connect 10 0 1 0;
#X restore 172 113 pd draw \$1 \$2;
#X connect 0 0 8 0;
#X connect 1 0 2 0;
#X connect 2 0 7 0;
#X connect 2 0 9 0;
#X connect 3 0 4 0;
#X connect 4 0 5 0;
#X connect 5 0 2 1;
#X connect 6 0 9 1;
#X connect 8 0 1 0;
