#N canvas 85 285 461 589 12;
#X obj 76 305 *~;
#X obj 238 157 line~;
#X obj 238 131 pack 0 200;
#X obj 238 73 r window;
#X obj 20 160 exp;
#X obj 20 247 /;
#X obj 137 179 * 0.001;
#X obj 355 222 line~;
#X obj 355 197 pack 0 200;
#X obj 355 144 r delay;
#X obj 76 334 +~;
#X obj 20 363 cos~;
#X obj 20 392 *~;
#X obj 98 524 +~;
#X obj 224 276 wrap~;
#X obj 280 305 *~;
#X obj 280 334 +~;
#X obj 224 363 cos~;
#X obj 224 392 *~;
#X obj 137 206 t b f;
#X obj 224 247 +~ 0.5;
#X obj 20 305 -~ 0.5;
#X obj 20 334 *~ 0.5;
#X obj 224 305 -~ 0.5;
#X obj 224 334 *~ 0.5;
#X obj 20 189 - 1;
#X obj 20 131 * 0.05776;
#X obj 20 218 * -1;
#X text 88 126 <-- transposition;
#X text 130 139 (halftones);
#X text 54 185 speed;
#X text 47 199 change;
#X text 78 242 tape head;
#X obj 20 276 phasor~;
#X obj 355 173 max 1.5;
#X text 358 103 delay;
#X text 355 121 (msec);
#X obj 238 102 max 1;
#X text 50 255 rotation freq;
#X obj 20 15 inlet;
#X obj 98 557 outlet~;
#X obj 20 44 f;
#X text 302 71 <-- window (msec);
#X obj 320 305 r~ \$0-delay;
#X obj 111 305 r~ \$0-delay;
#X obj 355 251 s~ \$0-delay;
#X obj 76 363 vd~ \$1;
#X obj 280 363 vd~ \$1;
#X obj 20 73 * 20;
#X obj 20 102 - 10;
#X connect 0 0 10 0;
#X connect 1 0 0 1;
#X connect 1 0 15 1;
#X connect 2 0 1 0;
#X connect 3 0 37 0;
#X connect 4 0 25 0;
#X connect 5 0 33 0;
#X connect 6 0 19 0;
#X connect 7 0 45 0;
#X connect 8 0 7 0;
#X connect 9 0 34 0;
#X connect 10 0 46 0;
#X connect 11 0 12 0;
#X connect 12 0 13 0;
#X connect 13 0 40 0;
#X connect 14 0 15 0;
#X connect 14 0 23 0;
#X connect 15 0 16 0;
#X connect 16 0 47 0;
#X connect 17 0 18 0;
#X connect 18 0 13 1;
#X connect 19 0 5 0;
#X connect 19 1 5 1;
#X connect 20 0 14 0;
#X connect 21 0 22 0;
#X connect 22 0 11 0;
#X connect 23 0 24 0;
#X connect 24 0 17 0;
#X connect 25 0 27 0;
#X connect 26 0 4 0;
#X connect 27 0 5 0;
#X connect 33 0 0 0;
#X connect 33 0 21 0;
#X connect 33 0 20 0;
#X connect 34 0 8 0;
#X connect 37 0 6 0;
#X connect 37 0 2 0;
#X connect 39 0 41 0;
#X connect 41 0 48 0;
#X connect 43 0 16 1;
#X connect 44 0 10 1;
#X connect 46 0 12 1;
#X connect 47 0 18 1;
#X connect 48 0 49 0;
#X connect 49 0 26 0;
