#N canvas 102 525 321 177 12;
#X obj 10 20 inlet~;
#X obj 96 20 inlet;
#X obj 96 44 birb-pointer \$2 \$3;
#X obj 96 68 tabread4~ \$1;
#X obj 96 92 hip~ 5;
#X obj 96 116 *~ 0.7;
#X obj 96 140 ipoke~ \$1;
#X obj 266 20 inlet;
#X obj 10 140 outlet~;
#X connect 0 0 4 0;
#X connect 1 0 2 0;
#X connect 2 0 3 0;
#X connect 2 0 6 1;
#X connect 3 0 4 0;
#X connect 3 0 8 0;
#X connect 4 0 5 0;
#X connect 5 0 6 0;
#X connect 7 0 5 1;
