#N canvas 789 91 796 492 12;
#X obj 9 11 inlet~;
#N canvas 907 561 192 101 delWrite 1;
#X obj 9 12 inlet~;
#X obj 9 70 outlet~;
#X obj 9 41 delwrite~ \$0-\$1-comp 500;
#X connect 0 0 2 0;
#X restore 9 240 pd delWrite \$1;
#N canvas 1118 561 225 102 delRead 1;
#X obj 6 10 inlet~;
#X obj 62 10 inlet;
#X obj 62 39 delread~ \$0-\$1-comp 0;
#X obj 62 68 outlet~;
#X connect 1 0 2 0;
#X connect 2 0 3 0;
#X restore 9 298 pd delRead \$1;
#X obj 97 269 r \$0-lookahead;
#X obj 377 11 inlet;
#X obj 377 40 t a a;
#N canvas 785 484 203 444 init 0;
#X obj 9 8 loadbang;
#X obj 9 37 t b b b b b b;
#X obj 9 356 f \$1;
#X msg 9 385 threshold \$1;
#X obj 26 298 f \$2;
#X msg 26 327 ratio \$1;
#X obj 45 240 f \$3;
#X msg 45 269 response \$1;
#X obj 61 182 f \$4;
#X msg 61 211 gain \$1;
#X obj 79 124 f \$5;
#X msg 79 153 rmspeak \$1;
#X obj 97 66 f \$6;
#X msg 97 95 lookahead \$1;
#X obj 143 414 outlet;
#X connect 0 0 1 0;
#X connect 1 0 2 0;
#X connect 1 1 4 0;
#X connect 1 2 6 0;
#X connect 1 3 8 0;
#X connect 1 4 10 0;
#X connect 1 5 12 0;
#X connect 2 0 3 0;
#X connect 3 0 14 0;
#X connect 4 0 5 0;
#X connect 5 0 14 0;
#X connect 6 0 7 0;
#X connect 7 0 14 0;
#X connect 8 0 9 0;
#X connect 9 0 14 0;
#X connect 10 0 11 0;
#X connect 11 0 14 0;
#X connect 12 0 13 0;
#X connect 13 0 14 0;
#X restore 426 11 pd init;
#X obj 377 69 route threshold ratio response gain rmspeak lookahead;
#X obj 683 98 s \$0-lookahead;
#X obj 622 127 s \$0-rmspeak;
#X obj 561 185 dbtorms;
#X obj 561 214 s \$0-gain;
#X obj 561 156 + 100;
#X obj 499 243 swap 1000;
#X obj 499 272 /;
#X obj 499 301 s \$0-response;
#X obj 438 330 swap 1;
#X obj 438 359 /;
#X obj 438 388 s \$0-ratio;
#X obj 377 417 + 100;
#X obj 377 441 dbtorms;
#X obj 377 465 s \$0-thresh;
#X obj 259 11 r \$0-rmspeak;
#X obj 259 40 t f f;
#X obj 259 69 == 0;
#N canvas 471 434 163 332 rms 0;
#X obj 95 9 inlet;
#X obj 7 9 inlet~;
#X obj 7 38 env~ 512;
#X obj 7 67 dbtorms~;
#X obj 7 125 -~;
#X obj 25 96 r \$0-thresh;
#X obj 7 183 *~;
#X obj 7 241 +~;
#X obj 98 270 /~;
#X obj 25 154 r \$0-ratio;
#X obj 25 212 r \$0-thresh;
#X obj 95 38 switch~;
#X obj 116 96 +~ 0;
#X obj 98 299 outlet~;
#X connect 0 0 11 0;
#X connect 1 0 2 0;
#X connect 2 0 3 0;
#X connect 3 0 4 0;
#X connect 3 0 12 0;
#X connect 4 0 6 0;
#X connect 5 0 4 1;
#X connect 6 0 7 0;
#X connect 7 0 8 0;
#X connect 8 0 13 0;
#X connect 9 0 6 1;
#X connect 10 0 7 1;
#X connect 12 0 8 1;
#X restore 220 98 pd rms;
#N canvas 812 451 165 327 peak 0;
#X obj 95 9 inlet;
#X obj 7 9 inlet~;
#X obj 7 38 env~ 512;
#X obj 7 125 -~;
#X obj 25 96 r \$0-thresh;
#X obj 7 183 *~;
#X obj 7 241 +~;
#X obj 98 270 /~;
#X obj 25 154 r \$0-ratio;
#X obj 25 212 r \$0-thresh;
#X obj 95 38 switch~;
#X obj 116 96 +~ 0;
#X obj 98 299 outlet~;
#X obj 7 67 abs~;
#X connect 0 0 10 0;
#X connect 1 0 2 0;
#X connect 2 0 13 0;
#X connect 3 0 5 0;
#X connect 4 0 3 1;
#X connect 5 0 6 0;
#X connect 6 0 7 0;
#X connect 7 0 12 0;
#X connect 8 0 5 1;
#X connect 9 0 6 1;
#X connect 11 0 7 1;
#X connect 13 0 3 0;
#X connect 13 0 11 0;
#X restore 245 127 pd peak;
#X obj 220 156 clip~ 0 1;
#X obj 220 214 lop~;
#X obj 245 185 r \$0-response;
#X obj 202 327 *~;
#X obj 237 269 r \$0-gain;
#X obj 237 298 pack f 5;
#X obj 237 327 line~;
#X obj 202 356 *~;
#X obj 202 385 outlet~;
#X connect 0 0 1 0;
#X connect 0 0 25 0;
#X connect 0 0 26 0;
#X connect 1 0 2 0;
#X connect 2 0 30 0;
#X connect 3 0 2 1;
#X connect 4 0 5 0;
#X connect 5 0 7 0;
#X connect 6 0 5 0;
#X connect 7 0 19 0;
#X connect 7 1 16 0;
#X connect 7 2 13 0;
#X connect 7 3 12 0;
#X connect 7 4 9 0;
#X connect 7 5 8 0;
#X connect 10 0 11 0;
#X connect 12 0 10 0;
#X connect 13 0 14 0;
#X connect 13 1 14 1;
#X connect 14 0 15 0;
#X connect 16 0 17 0;
#X connect 16 1 17 1;
#X connect 17 0 18 0;
#X connect 19 0 20 0;
#X connect 20 0 21 0;
#X connect 22 0 23 0;
#X connect 23 0 24 0;
#X connect 23 1 26 1;
#X connect 24 0 25 1;
#X connect 25 0 27 0;
#X connect 26 0 27 0;
#X connect 27 0 28 0;
#X connect 28 0 30 1;
#X connect 29 0 28 1;
#X connect 30 0 34 0;
#X connect 31 0 32 0;
#X connect 32 0 33 0;
#X connect 33 0 34 1;
#X connect 34 0 35 0;
