#N canvas 469 39 1197 955 12;
#X declare -path bin;
#X declare -path bin64;
#X obj 358 545 unpack f f;
#X obj 274 545 unpack f f;
#X obj 274 516 route 1 2 3 4;
#X obj 12 84 *~ 5;
#X obj 68 142 writesf~;
#X msg 68 55 open voice.wav \, start;
#X msg 88 113 stop;
#N canvas 0 22 450 278 (subpatch) 0;
#X array voiceData 407552 float 4;
#X coords 0 1 407551 -1 200 140 1 0 0;
#X restore 234 26 graph;
#X obj 144 256 soundfiler;
#X floatatom 144 285 10 0 0 0 - - - 0;
#X obj 144 400 phasor~;
#X obj 144 429 *~;
#X obj 144 458 tabread4~ voiceData;
#X msg 67 227 0;
#X obj 144 371 * 1;
#X obj 179 371 t b f;
#X obj 179 318 nbx 5 14 -1e+37 1e+37 0 0 empty empty empty 0 -8 0 10 #fcfcfc #000000 #000000 0 256;
#X text 510 580 decorrelate two oscilators;
#X obj 624 -122 snapshot~;
#X msg 144 227 read -resize voice.wav voiceData;
#X obj 471 -122 snapshot~;
#X obj 12 55 adc~ 1;
#X obj 358 574 pipe 1000;
#X obj 435 574 pipe 1000;
#X obj 1099 557 hsl 128 15 0 1 0 1 empty empty 'roomsize' 20 8 0 10 #fcfcfc #fc8000 #000000 12065 0;
#X obj 1385 557 hsl 128 15 0 2 0 1 empty empty damp 20 8 0 10 #fcfcfc #fc8000 #000000 6350 0;
#X obj 1242 557 hsl 128 15 0 1 0 1 empty empty wet 20 8 0 10 #fcfcfc #fc8000 #000000 12065 0;
#X obj 1425 582 hsl 128 15 0 1 0 1 empty empty dry 20 8 0 10 #fcfcfc #fc8000 #000000 10160 0;
#N canvas 92 310 634 321 vfreeverb~ 0;
#N canvas 261 41 778 367 combfilters-left1 0;
#X obj 46 244 +~;
#X obj 61 219 *~ 0.3;
#X obj 61 194 lop~ 1000;
#X obj 231 244 +~;
#X obj 246 219 *~ 0.3;
#X obj 246 194 lop~ 1000;
#X obj 429 218 *~ 0.3;
#X obj 429 193 lop~ 1000;
#X obj 414 241 +~;
#X obj 610 218 *~ 0.3;
#X obj 610 193 lop~ 1000;
#X obj 595 241 +~;
#X obj 61 141 delread~ \$0-comb1left;
#X obj 246 142 delread~ \$0-comb2left;
#X obj 429 141 delread~ \$0-comb3left;
#X obj 610 141 delread~ \$0-comb4left;
#X obj 46 268 delwrite~ \$0-comb1left 100;
#X obj 231 268 delwrite~ \$0-comb2left 100;
#X obj 414 267 delwrite~ \$0-comb3left 100;
#X obj 595 267 delwrite~ \$0-comb4left 100;
#X obj 61 97 r \$0-comb1left;
#X obj 246 97 r \$0-comb2left;
#X obj 429 95 r \$0-comb3left;
#X obj 610 96 r \$0-comb4left;
#X obj 112 170 r \$0-frequency;
#X obj 297 170 r \$0-frequency;
#X obj 480 167 r \$0-frequency;
#X obj 661 167 r \$0-frequency;
#X obj 46 28 inlet~;
#X obj 338 326 outlet~;
#X floatatom 70 119 5 0 0 0 - - - 0;
#X floatatom 255 121 5 0 0 0 - - - 0;
#X floatatom 439 119 5 0 0 0 - - - 0;
#X floatatom 622 121 5 0 0 0 - - - 0;
#X obj 279 58 clip 0 0.99;
#X obj 279 29 r \$0-room;
#X connect 0 0 16 0;
#X connect 1 0 0 1;
#X connect 2 0 1 0;
#X connect 3 0 17 0;
#X connect 4 0 3 1;
#X connect 5 0 4 0;
#X connect 6 0 8 1;
#X connect 7 0 6 0;
#X connect 8 0 18 0;
#X connect 9 0 11 1;
#X connect 10 0 9 0;
#X connect 11 0 19 0;
#X connect 12 0 2 0;
#X connect 12 0 29 0;
#X connect 13 0 5 0;
#X connect 13 0 29 0;
#X connect 14 0 7 0;
#X connect 14 0 29 0;
#X connect 15 0 10 0;
#X connect 15 0 29 0;
#X connect 20 0 12 0;
#X connect 20 0 30 0;
#X connect 21 0 13 0;
#X connect 21 0 31 0;
#X connect 22 0 14 0;
#X connect 22 0 32 0;
#X connect 23 0 15 0;
#X connect 23 0 33 0;
#X connect 24 0 2 1;
#X connect 25 0 5 1;
#X connect 26 0 7 1;
#X connect 27 0 10 1;
#X connect 28 0 0 0;
#X connect 28 0 3 0;
#X connect 28 0 8 0;
#X connect 28 0 11 0;
#X connect 34 0 1 1;
#X connect 34 0 4 1;
#X connect 34 0 6 1;
#X connect 34 0 9 1;
#X connect 35 0 34 0;
#X restore 15 100 pd combfilters-left1;
#N canvas 27 56 358 650 diffusor-left 0;
#X obj 51 107 *~ 0.5;
#X obj 36 132 +~;
#X obj 66 132 -~;
#X obj 36 26 inlet~;
#X obj 81 238 *~ 0.5;
#X obj 66 263 +~;
#X obj 96 263 -~;
#X obj 111 368 *~ 0.5;
#X obj 96 393 +~;
#X obj 126 393 -~;
#X obj 141 498 *~ 0.5;
#X obj 126 523 +~;
#X obj 156 523 -~;
#X obj 156 605 outlet~;
#X text 95 28 freeverb's diffusor;
#X obj 156 576 hip~ 5;
#X floatatom 214 70 5 0 0 0 - - - 0;
#X floatatom 246 203 5 0 0 0 - - - 0;
#X floatatom 280 334 5 0 0 0 - - - 0;
#X floatatom 304 464 5 0 0 0 - - - 0;
#X obj 51 53 r \$0-allpass1left;
#X obj 51 80 delread~ \$0-allpass1left;
#X obj 36 158 delwrite~ \$0-allpass1left 40;
#X obj 81 186 r \$0-allpass2left;
#X obj 81 211 delread~ \$0-allpass2left;
#X obj 66 290 delwrite~ \$0-allpass2left 40;
#X obj 111 317 r \$0-allpass3left;
#X obj 111 341 delread~ \$0-allpass3left;
#X obj 96 420 delwrite~ \$0-allpass3left 40;
#X obj 141 447 r \$0-allpass4left;
#X obj 141 471 delread~ \$0-allpass4left;
#X obj 126 550 delwrite~ \$0-allpass4left 40;
#X connect 0 0 1 1;
#X connect 1 0 22 0;
#X connect 2 0 5 0;
#X connect 2 0 6 1;
#X connect 3 0 1 0;
#X connect 3 0 2 1;
#X connect 4 0 5 1;
#X connect 5 0 25 0;
#X connect 6 0 8 0;
#X connect 6 0 9 1;
#X connect 7 0 8 1;
#X connect 8 0 28 0;
#X connect 9 0 11 0;
#X connect 9 0 12 1;
#X connect 10 0 11 1;
#X connect 11 0 31 0;
#X connect 12 0 15 0;
#X connect 15 0 13 0;
#X connect 20 0 16 0;
#X connect 20 0 21 0;
#X connect 21 0 0 0;
#X connect 21 0 2 0;
#X connect 23 0 17 0;
#X connect 23 0 24 0;
#X connect 24 0 4 0;
#X connect 24 0 6 0;
#X connect 26 0 18 0;
#X connect 26 0 27 0;
#X connect 27 0 7 0;
#X connect 27 0 9 0;
#X connect 29 0 19 0;
#X connect 29 0 30 0;
#X connect 30 0 10 0;
#X connect 30 0 12 0;
#X restore 15 168 pd diffusor-left;
#N canvas 312 362 778 367 combfilters-left2 0;
#X obj 46 244 +~;
#X obj 61 219 *~ 0.3;
#X obj 61 194 lop~ 1000;
#X obj 231 244 +~;
#X obj 246 219 *~ 0.3;
#X obj 246 194 lop~ 1000;
#X obj 429 218 *~ 0.3;
#X obj 429 193 lop~ 1000;
#X obj 414 241 +~;
#X obj 610 218 *~ 0.3;
#X obj 610 193 lop~ 1000;
#X obj 595 241 +~;
#X obj 112 170 r \$0-frequency;
#X obj 297 170 r \$0-frequency;
#X obj 480 167 r \$0-frequency;
#X obj 661 167 r \$0-frequency;
#X obj 46 28 inlet~;
#X obj 338 326 outlet~;
#X obj 61 90 r \$0-comb5left;
#X obj 61 141 delread~ \$0-comb5left;
#X obj 46 268 delwrite~ \$0-comb5left 100;
#X obj 246 90 r \$0-comb6left;
#X obj 246 142 delread~ \$0-comb6left;
#X obj 231 268 delwrite~ \$0-comb6left 100;
#X obj 429 88 r \$0-comb7left;
#X obj 429 141 delread~ \$0-comb7left;
#X obj 414 267 delwrite~ \$0-comb7left 100;
#X obj 610 89 r \$0-comb8left;
#X obj 610 141 delread~ \$0-comb8left;
#X obj 595 267 delwrite~ \$0-comb8left 100;
#X floatatom 70 116 5 0 0 0 - - - 0;
#X floatatom 261 118 5 0 0 0 - - - 0;
#X floatatom 440 117 5 0 0 0 - - - 0;
#X floatatom 620 116 5 0 0 0 - - - 0;
#X obj 279 58 clip 0 0.99;
#X obj 279 28 r \$0-room;
#X connect 0 0 20 0;
#X connect 1 0 0 1;
#X connect 2 0 1 0;
#X connect 3 0 23 0;
#X connect 4 0 3 1;
#X connect 5 0 4 0;
#X connect 6 0 8 1;
#X connect 7 0 6 0;
#X connect 8 0 26 0;
#X connect 9 0 11 1;
#X connect 10 0 9 0;
#X connect 11 0 29 0;
#X connect 12 0 2 1;
#X connect 13 0 5 1;
#X connect 14 0 7 1;
#X connect 15 0 10 1;
#X connect 16 0 0 0;
#X connect 16 0 3 0;
#X connect 16 0 8 0;
#X connect 16 0 11 0;
#X connect 18 0 19 0;
#X connect 18 0 30 0;
#X connect 19 0 2 0;
#X connect 19 0 17 0;
#X connect 21 0 22 0;
#X connect 21 0 31 0;
#X connect 22 0 5 0;
#X connect 22 0 17 0;
#X connect 24 0 25 0;
#X connect 24 0 32 0;
#X connect 25 0 7 0;
#X connect 25 0 17 0;
#X connect 27 0 28 0;
#X connect 27 0 33 0;
#X connect 28 0 10 0;
#X connect 28 0 17 0;
#X connect 34 0 1 1;
#X connect 34 0 4 1;
#X connect 34 0 6 1;
#X connect 34 0 9 1;
#X connect 35 0 34 0;
#X restore 36 134 pd combfilters-left2;
#N canvas 261 41 778 367 combfilters-right1 0;
#X obj 46 244 +~;
#X obj 61 219 *~ 0.3;
#X obj 61 194 lop~ 1000;
#X obj 231 244 +~;
#X obj 246 219 *~ 0.3;
#X obj 246 194 lop~ 1000;
#X obj 429 218 *~ 0.3;
#X obj 429 193 lop~ 1000;
#X obj 414 241 +~;
#X obj 610 218 *~ 0.3;
#X obj 610 193 lop~ 1000;
#X obj 595 241 +~;
#X obj 112 170 r \$0-frequency;
#X obj 297 170 r \$0-frequency;
#X obj 480 167 r \$0-frequency;
#X obj 661 167 r \$0-frequency;
#X obj 46 28 inlet~;
#X obj 338 326 outlet~;
#X floatatom 70 119 5 0 0 0 - - - 0;
#X floatatom 255 121 5 0 0 0 - - - 0;
#X floatatom 439 119 5 0 0 0 - - - 0;
#X floatatom 622 121 5 0 0 0 - - - 0;
#X obj 61 141 delread~ \$0-comb1right;
#X obj 246 142 delread~ \$0-comb2right;
#X obj 429 141 delread~ \$0-comb3right;
#X obj 610 141 delread~ \$0-comb4right;
#X obj 61 97 r \$0-comb1right;
#X obj 246 97 r \$0-comb2right;
#X obj 429 95 r \$0-comb3right;
#X obj 610 97 r \$0-comb4right;
#X obj 46 268 delwrite~ \$0-comb1right 100;
#X obj 231 268 delwrite~ \$0-comb2right 100;
#X obj 414 267 delwrite~ \$0-comb3right 100;
#X obj 595 267 delwrite~ \$0-comb4right 100;
#X obj 279 58 clip 0 0.99;
#X obj 279 28 r \$0-room;
#X connect 0 0 30 0;
#X connect 1 0 0 1;
#X connect 2 0 1 0;
#X connect 3 0 31 0;
#X connect 4 0 3 1;
#X connect 5 0 4 0;
#X connect 6 0 8 1;
#X connect 7 0 6 0;
#X connect 8 0 32 0;
#X connect 9 0 11 1;
#X connect 10 0 9 0;
#X connect 11 0 33 0;
#X connect 12 0 2 1;
#X connect 13 0 5 1;
#X connect 14 0 7 1;
#X connect 15 0 10 1;
#X connect 16 0 0 0;
#X connect 16 0 3 0;
#X connect 16 0 8 0;
#X connect 16 0 11 0;
#X connect 22 0 2 0;
#X connect 22 0 17 0;
#X connect 23 0 5 0;
#X connect 23 0 17 0;
#X connect 24 0 7 0;
#X connect 24 0 17 0;
#X connect 25 0 10 0;
#X connect 25 0 17 0;
#X connect 26 0 18 0;
#X connect 26 0 22 0;
#X connect 27 0 19 0;
#X connect 27 0 23 0;
#X connect 28 0 20 0;
#X connect 28 0 24 0;
#X connect 29 0 21 0;
#X connect 29 0 25 0;
#X connect 34 0 1 1;
#X connect 34 0 4 1;
#X connect 34 0 6 1;
#X connect 34 0 9 1;
#X connect 35 0 34 0;
#X restore 208 99 pd combfilters-right1;
#N canvas 312 362 778 367 combfilters-right2 0;
#X obj 46 244 +~;
#X obj 61 219 *~ 0.3;
#X obj 61 194 lop~ 1000;
#X obj 231 244 +~;
#X obj 246 219 *~ 0.3;
#X obj 246 194 lop~ 1000;
#X obj 429 218 *~ 0.3;
#X obj 429 193 lop~ 1000;
#X obj 414 241 +~;
#X obj 610 218 *~ 0.3;
#X obj 610 193 lop~ 1000;
#X obj 595 241 +~;
#X obj 112 170 r \$0-frequency;
#X obj 297 170 r \$0-frequency;
#X obj 480 167 r \$0-frequency;
#X obj 661 167 r \$0-frequency;
#X obj 46 28 inlet~;
#X obj 338 326 outlet~;
#X floatatom 70 116 5 0 0 0 - - - 0;
#X floatatom 261 118 5 0 0 0 - - - 0;
#X floatatom 440 117 5 0 0 0 - - - 0;
#X floatatom 620 116 5 0 0 0 - - - 0;
#X obj 279 58 clip 0 0.99;
#X obj 61 90 r \$0-comb5right;
#X obj 246 90 r \$0-comb6right;
#X obj 429 88 r \$0-comb7right;
#X obj 610 89 r \$0-comb8right;
#X obj 61 141 delread~ \$0-comb5right;
#X obj 246 142 delread~ \$0-comb6right;
#X obj 429 141 delread~ \$0-comb7right;
#X obj 610 141 delread~ \$0-comb8right;
#X obj 46 268 delwrite~ \$0-comb5right 100;
#X obj 231 268 delwrite~ \$0-comb6right 100;
#X obj 414 267 delwrite~ \$0-comb7right 100;
#X obj 595 267 delwrite~ \$0-comb8right 100;
#X obj 279 28 r \$0-room;
#X connect 0 0 31 0;
#X connect 1 0 0 1;
#X connect 2 0 1 0;
#X connect 3 0 32 0;
#X connect 4 0 3 1;
#X connect 5 0 4 0;
#X connect 6 0 8 1;
#X connect 7 0 6 0;
#X connect 8 0 33 0;
#X connect 9 0 11 1;
#X connect 10 0 9 0;
#X connect 11 0 34 0;
#X connect 12 0 2 1;
#X connect 13 0 5 1;
#X connect 14 0 7 1;
#X connect 15 0 10 1;
#X connect 16 0 0 0;
#X connect 16 0 3 0;
#X connect 16 0 8 0;
#X connect 16 0 11 0;
#X connect 22 0 1 1;
#X connect 22 0 4 1;
#X connect 22 0 6 1;
#X connect 22 0 9 1;
#X connect 23 0 18 0;
#X connect 23 0 27 0;
#X connect 24 0 19 0;
#X connect 24 0 28 0;
#X connect 25 0 20 0;
#X connect 25 0 29 0;
#X connect 26 0 21 0;
#X connect 26 0 30 0;
#X connect 27 0 2 0;
#X connect 27 0 17 0;
#X connect 28 0 5 0;
#X connect 28 0 17 0;
#X connect 29 0 7 0;
#X connect 29 0 17 0;
#X connect 30 0 10 0;
#X connect 30 0 17 0;
#X connect 35 0 22 0;
#X restore 225 133 pd combfilters-right2;
#N canvas 27 56 358 650 diffusor-right 0;
#X obj 51 107 *~ 0.5;
#X obj 36 132 +~;
#X obj 66 132 -~;
#X obj 36 26 inlet~;
#X obj 81 238 *~ 0.5;
#X obj 66 263 +~;
#X obj 96 263 -~;
#X obj 111 368 *~ 0.5;
#X obj 96 393 +~;
#X obj 126 393 -~;
#X obj 141 498 *~ 0.5;
#X obj 126 523 +~;
#X obj 156 523 -~;
#X obj 156 605 outlet~;
#X text 95 28 freeverb's diffusor;
#X obj 156 576 hip~ 5;
#X floatatom 214 70 5 0 0 0 - - - 0;
#X floatatom 244 203 5 0 0 0 - - - 0;
#X floatatom 280 334 5 0 0 0 - - - 0;
#X floatatom 304 464 5 0 0 0 - - - 0;
#X obj 51 53 r \$0-allpass1right;
#X obj 51 80 delread~ \$0-allpass1right;
#X obj 36 158 delwrite~ \$0-allpass1right 40;
#X obj 81 186 r \$0-allpass2right;
#X obj 81 211 delread~ \$0-allpass2right;
#X obj 66 290 delwrite~ \$0-allpass2right 40;
#X obj 111 317 r \$0-allpass3right;
#X obj 111 341 delread~ \$0-allpass3right;
#X obj 96 420 delwrite~ \$0-allpass3right 40;
#X obj 141 447 r \$0-allpass4right;
#X obj 141 471 delread~ \$0-allpass4right;
#X obj 126 550 delwrite~ \$0-allpass4right 40;
#X connect 0 0 1 1;
#X connect 1 0 22 0;
#X connect 2 0 5 0;
#X connect 2 0 6 1;
#X connect 3 0 1 0;
#X connect 3 0 2 1;
#X connect 4 0 5 1;
#X connect 5 0 25 0;
#X connect 6 0 8 0;
#X connect 6 0 9 1;
#X connect 7 0 8 1;
#X connect 8 0 28 0;
#X connect 9 0 11 0;
#X connect 9 0 12 1;
#X connect 10 0 11 1;
#X connect 11 0 31 0;
#X connect 12 0 15 0;
#X connect 15 0 13 0;
#X connect 20 0 16 0;
#X connect 20 0 21 0;
#X connect 21 0 0 0;
#X connect 21 0 2 0;
#X connect 23 0 17 0;
#X connect 23 0 24 0;
#X connect 24 0 4 0;
#X connect 24 0 6 0;
#X connect 26 0 18 0;
#X connect 26 0 27 0;
#X connect 27 0 7 0;
#X connect 27 0 9 0;
#X connect 29 0 19 0;
#X connect 29 0 30 0;
#X connect 30 0 10 0;
#X connect 30 0 12 0;
#X restore 208 169 pd diffusor-right;
#X obj 208 61 *~ 0.015;
#X obj 15 226 *~ 1;
#X obj 208 228 *~ 1;
#X obj 94 228 *~ 1;
#X obj 169 228 *~ 1;
#X obj 115 202 r \$0-dry;
#X obj 229 203 r \$0-wet;
#X obj 36 201 r \$0-wet;
#X obj 94 14 inlet~;
#X obj 208 14 inlet~;
#X obj 15 268 outlet~;
#X obj 169 269 outlet~;
#X obj 312 14 inlet;
#X obj 374 14 inlet;
#X obj 462 14 inlet;
#X obj 544 16 inlet;
#N canvas 0 23 207 207 room 0;
#X obj 32 35 inlet;
#X obj 32 63 * 0.28;
#X obj 32 94 + 0.7;
#X obj 32 160 outlet;
#X text 80 65 scaleroom;
#X text 76 94 offsetroom;
#X obj 47 126 s \$0-room;
#X connect 0 0 1 0;
#X connect 1 0 2 0;
#X connect 2 0 3 0;
#X connect 2 0 6 0;
#X restore 312 45 pd room;
#N canvas 684 169 244 376 frequency 0;
#X obj 60 222 samplerate~;
#X obj 33 8 inlet;
#X obj 33 194 t f b;
#X obj 33 249 *;
#X obj 53 303 s \$0-frequency;
#X obj 33 327 outlet;
#X obj 33 64 * 0.4;
#X text 76 66 scaledamp;
#X obj 33 38 clip 0 2;
#X obj 33 90 t b f;
#X obj 33 141 -;
#X msg 33 116 1;
#X obj 33 168 abs;
#X obj 33 275 * 0.5;
#X text 153 303 for [lop~];
#X connect 0 0 3 1;
#X connect 1 0 8 0;
#X connect 2 0 3 0;
#X connect 2 1 0 0;
#X connect 3 0 13 0;
#X connect 6 0 9 0;
#X connect 8 0 6 0;
#X connect 9 0 11 0;
#X connect 9 1 10 1;
#X connect 10 0 12 0;
#X connect 11 0 10 0;
#X connect 12 0 2 0;
#X connect 13 0 5 0;
#X connect 13 0 4 0;
#X restore 374 45 pd frequency;
#N canvas 0 23 170 187 scalewet 0;
#X obj 22 42 inlet;
#X obj 22 143 outlet;
#X obj 22 73 * 3;
#X text 49 74 scalewet;
#X obj 40 112 s \$0-wet;
#X connect 0 0 2 0;
#X connect 2 0 1 0;
#X connect 2 0 4 0;
#X restore 544 45 pd scalewet;
#N canvas 0 23 220 198 scaledry 0;
#X obj 32 74 * 2;
#X obj 32 40 inlet;
#X obj 32 141 outlet;
#X text 58 75 scaledry;
#X obj 41 105 s \$0-dry;
#X connect 0 0 2 0;
#X connect 0 0 4 0;
#X connect 1 0 0 0;
#X restore 462 45 pd scaledry;
#X floatatom 312 70 5 0 0 0 - - - 0;
#X floatatom 374 70 10 0 0 0 - - - 0;
#X floatatom 462 69 5 0 0 0 - - - 0;
#X floatatom 544 69 5 0 0 0 - - - 0;
#N canvas 405 27 635 684 tuning 0;
#X msg 332 81 1139 \, 1211 \, 1300 \, 1379 \, 1445 \, 1514 \, 1580 \, 1640;
#X text 72 57 combfilter tunings left;
#X text 377 56 combfilter tunings right;
#X text 71 360 allpass tunings left;
#X text 383 355 allpass tunings right;
#N canvas 243 170 195 233 sampstoms 0;
#X obj 27 21 inlet;
#X obj 54 86 samplerate~;
#X obj 27 111 /;
#X obj 27 57 t f b;
#X obj 27 136 * 1000;
#X obj 27 162 outlet;
#X connect 0 0 3 0;
#X connect 1 0 2 1;
#X connect 2 0 4 0;
#X connect 3 0 2 0;
#X connect 3 1 1 0;
#X connect 4 0 5 0;
#X restore 30 107 pd sampstoms;
#X msg 30 82 1116 \, 1188 \, 1277 \, 1356 \, 1422 \, 1491 \, 1557 \, 1617;
#X obj 57 188 +;
#X msg 57 159 1;
#X obj 30 135 t f b;
#X obj 87 188 f;
#X obj 30 56 t b b;
#X msg 87 159 0;
#X obj 57 212 pack f \$0;
#X msg 57 238 \$2-comb\$1left;
#X obj 30 282 s;
#X obj 57 265 symbol;
#N canvas 0 22 195 233 sampstoms 0;
#X obj 27 21 inlet;
#X obj 54 86 samplerate~;
#X obj 27 111 /;
#X obj 27 57 t f b;
#X obj 27 136 * 1000;
#X obj 27 162 outlet;
#X connect 0 0 3 0;
#X connect 1 0 2 1;
#X connect 2 0 4 0;
#X connect 3 0 2 0;
#X connect 3 1 1 0;
#X connect 4 0 5 0;
#X restore 332 107 pd sampstoms;
#X obj 359 188 +;
#X msg 359 159 1;
#X obj 332 135 t f b;
#X obj 389 188 f;
#X msg 389 159 0;
#X obj 359 212 pack f \$0;
#X obj 332 282 s;
#X obj 359 265 symbol;
#X obj 332 56 t b b;
#X msg 359 238 \$2-comb\$1right;
#X obj 30 360 t b b;
#N canvas 0 22 195 233 sampstoms 0;
#X obj 27 21 inlet;
#X obj 54 86 samplerate~;
#X obj 27 111 /;
#X obj 27 57 t f b;
#X obj 27 136 * 1000;
#X obj 27 162 outlet;
#X connect 0 0 3 0;
#X connect 1 0 2 1;
#X connect 2 0 4 0;
#X connect 3 0 2 0;
#X connect 3 1 1 0;
#X connect 4 0 5 0;
#X restore 30 411 pd sampstoms;
#X obj 57 492 +;
#X msg 57 463 1;
#X obj 30 439 t f b;
#X obj 87 492 f;
#X msg 87 463 0;
#X obj 57 516 pack f \$0;
#X obj 30 586 s;
#X obj 57 569 symbol;
#X obj 334 356 t b b;
#N canvas 0 22 195 233 sampstoms 0;
#X obj 27 21 inlet;
#X obj 54 86 samplerate~;
#X obj 27 111 /;
#X obj 27 57 t f b;
#X obj 27 136 * 1000;
#X obj 27 162 outlet;
#X connect 0 0 3 0;
#X connect 1 0 2 1;
#X connect 2 0 4 0;
#X connect 3 0 2 0;
#X connect 3 1 1 0;
#X connect 4 0 5 0;
#X restore 334 407 pd sampstoms;
#X obj 361 488 +;
#X msg 361 459 1;
#X obj 334 435 t f b;
#X obj 391 488 f;
#X msg 391 459 0;
#X obj 361 512 pack f \$0;
#X obj 334 582 s;
#X obj 361 565 symbol;
#X obj 30 22 loadbang;
#X obj 332 27 loadbang;
#X obj 30 334 loadbang;
#X obj 334 331 loadbang;
#X obj 268 41 bng 15 250 50 0 empty empty empty 17 7 0 10 #fcfcfc #000000 #000000;
#X msg 30 386 225 \, 556 \, 441 \, 341;
#X msg 334 380 248 \, 579 \, 464 \, 364;
#X msg 57 542 \$2-allpass\$1left;
#X msg 361 539 \$2-allpass\$1right;
#X text 27 624 Original Freeverb delay line lengths are converted to milliseconds \, based on samplerate.;
#X connect 0 0 17 0;
#X connect 5 0 9 0;
#X connect 6 0 5 0;
#X connect 7 0 10 0;
#X connect 7 0 13 0;
#X connect 8 0 7 0;
#X connect 9 0 15 0;
#X connect 9 1 8 0;
#X connect 10 0 7 1;
#X connect 11 0 6 0;
#X connect 11 1 12 0;
#X connect 12 0 10 0;
#X connect 13 0 14 0;
#X connect 14 0 16 0;
#X connect 16 0 15 1;
#X connect 17 0 20 0;
#X connect 18 0 21 0;
#X connect 18 0 23 0;
#X connect 19 0 18 0;
#X connect 20 0 24 0;
#X connect 20 1 19 0;
#X connect 21 0 18 1;
#X connect 22 0 21 0;
#X connect 23 0 27 0;
#X connect 25 0 24 1;
#X connect 26 0 0 0;
#X connect 26 1 22 0;
#X connect 27 0 25 0;
#X connect 28 0 53 0;
#X connect 28 1 34 0;
#X connect 29 0 32 0;
#X connect 30 0 33 0;
#X connect 30 0 35 0;
#X connect 31 0 30 0;
#X connect 32 0 36 0;
#X connect 32 1 31 0;
#X connect 33 0 30 1;
#X connect 34 0 33 0;
#X connect 35 0 55 0;
#X connect 37 0 36 1;
#X connect 38 0 54 0;
#X connect 38 1 44 0;
#X connect 39 0 42 0;
#X connect 40 0 43 0;
#X connect 40 0 45 0;
#X connect 41 0 40 0;
#X connect 42 0 46 0;
#X connect 42 1 41 0;
#X connect 43 0 40 1;
#X connect 44 0 43 0;
#X connect 45 0 56 0;
#X connect 47 0 46 1;
#X connect 48 0 11 0;
#X connect 49 0 26 0;
#X connect 50 0 28 0;
#X connect 51 0 38 0;
#X connect 52 0 11 0;
#X connect 52 0 28 0;
#X connect 52 0 26 0;
#X connect 52 0 38 0;
#X connect 53 0 29 0;
#X connect 54 0 39 0;
#X connect 55 0 37 0;
#X connect 56 0 47 0;
#X restore 410 141 pd tuning;
#X connect 0 0 1 0;
#X connect 1 0 7 0;
#X connect 2 0 1 0;
#X connect 3 0 5 0;
#X connect 4 0 5 0;
#X connect 5 0 8 0;
#X connect 6 0 3 0;
#X connect 6 0 0 0;
#X connect 6 0 4 0;
#X connect 6 0 2 0;
#X connect 7 0 16 0;
#X connect 8 0 17 0;
#X connect 9 0 16 0;
#X connect 10 0 17 0;
#X connect 11 0 10 1;
#X connect 11 0 9 1;
#X connect 12 0 8 1;
#X connect 13 0 7 1;
#X connect 14 0 6 0;
#X connect 14 0 9 0;
#X connect 15 0 6 0;
#X connect 15 0 10 0;
#X connect 18 0 22 0;
#X connect 19 0 23 0;
#X connect 20 0 25 0;
#X connect 21 0 24 0;
#X connect 22 0 26 0;
#X connect 23 0 27 0;
#X connect 24 0 29 0;
#X connect 25 0 28 0;
#X restore 1151 653 pd vfreeverb~;
#X obj 1096 528 snapshot~;
#X msg 1422 528 0.8;
#X msg 1382 528 1;
#X obj 1187 470 loadbang;
#X obj 556 333 loadbang;
#X obj 626 391 snapshot~;
#X obj 274 721 delwrite~ G09-delA 5000;
#X obj 358 692 delwrite~ G09-delB 5000;
#X text 472 167 STEREO PITCH SHIFTER;
#X obj 228 283 + 0.4;
#X obj 228 256 * 1.6;
#X obj 1096 159 loadbang;
#X msg 1166 188 1;
#X msg 1475 185 0;
#X obj 1099 -151 hsl 395 140 0 88199 0 0 empty \$0-slider empty -2 -8 0 10 #fcfcfc #fc8000 #000000 0 1;
#X msg 1506 -151 const 0;
#N canvas 0 23 450 300 (subpatch) 0;
#X array \$0-ipokebuf1 88200 float 2;
#X coords 0 1 88200 -1 400 140 1;
#X restore 1096 -151 graph;
#X text 1560 -151 clear buffer;
#X obj 1100 9 hsl 395 140 0 88199 0 0 empty \$0-slider empty -2 -8 0 10 #fcfcfc #fc8000 #000000 0 1;
#X msg 1507 9 const 0;
#N canvas 0 23 450 300 (subpatch) 0;
#X array \$0-ipokebuf2 88200 float 2;
#X coords 0 1 88200 -1 400 140 1 0 0;
#X restore 1096 9 graph;
#X obj 1506 -122 s \$0-ipokebuf1;
#X obj 1300 276 * 18;
#X obj 787 -122 snapshot~;
#X text -283 628 Freeverb implemented with Pd vanilla objects - Katja Vetter May 2012;
#X obj 1187 499 metro 20;
#X text -283 577 BIRD TRANSLATOR - marylou petot - 2020 - used with Bela hardware;
#X obj 940 -122 snapshot~;
#X obj 144 487 fiddle~ 1024 1 20 4;
#X msg -193 -107 \; window 100 \; delay 0;
#X obj 1148 392 *~;
#X obj 1459 392 *~;
#X obj 860 -151 metro 50;
#X obj 556 362 metro 50;
#X obj 534 -151 metro 50;
#X obj 687 -151 metro 100;
#X obj 696 656 loadbang;
#N canvas 0 39 804 510 compressor1~ 0;
#N canvas 828 148 467 406 rms 0;
#X obj 45 32 inlet~;
#X obj 45 59 env~ 512;
#X obj 45 84 dbtorms~;
#X obj 45 140 -~;
#X obj 45 205 *~;
#X obj 45 250 +~;
#X obj 158 278 /~;
#X obj 60 117 r \$0-thresh;
#X obj 60 181 r \$0-ratio;
#X obj 61 228 r \$0-thresh;
#X obj 159 338 outlet~;
#X obj 175 112 +~ 0;
#X obj 213 36 inlet;
#X obj 213 66 switch~;
#X connect 0 0 1 0;
#X connect 1 0 2 0;
#X connect 2 0 3 0;
#X connect 2 0 11 0;
#X connect 3 0 4 0;
#X connect 4 0 5 0;
#X connect 5 0 6 0;
#X connect 6 0 10 0;
#X connect 7 0 3 1;
#X connect 8 0 4 1;
#X connect 9 0 5 1;
#X connect 11 0 6 1;
#X connect 12 0 13 0;
#X restore 172 114 pd rms;
#N canvas 828 148 467 406 peak 0;
#X obj 45 32 inlet~;
#X obj 45 59 env~ 512;
#X obj 45 140 -~;
#X obj 45 205 *~;
#X obj 45 250 +~;
#X obj 158 278 /~;
#X obj 60 117 r \$0-thresh;
#X obj 60 181 r \$0-ratio;
#X obj 61 228 r \$0-thresh;
#X obj 161 312 outlet~;
#X obj 45 84 abs~;
#X obj 175 110 +~ 0;
#X obj 213 36 inlet;
#X obj 213 66 switch~;
#X connect 0 0 1 0;
#X connect 1 0 10 0;
#X connect 2 0 3 0;
#X connect 3 0 4 0;
#X connect 4 0 5 0;
#X connect 5 0 9 0;
#X connect 6 0 2 1;
#X connect 7 0 3 1;
#X connect 8 0 4 1;
#X connect 10 0 2 0;
#X connect 10 0 11 0;
#X connect 11 0 5 1;
#X connect 12 0 13 0;
#X restore 219 114 pd peak;
#N canvas 0 23 450 300 delWrite 0;
#X obj 24 23 inlet~;
#X obj 24 45 delwrite~ \$0-comp 500;
#X obj 25 99 outlet~;
#X connect 0 0 1 0;
#X restore -39 196 pd delWrite;
#N canvas 0 23 450 300 delRead 0;
#X obj 34 35 inlet~;
#X obj 34 84 delread~ \$0-comp 0;
#X obj 131 33 inlet;
#X floatatom 131 62 5 0 0 0 - - - 0;
#X obj 33 139 outlet~;
#X connect 1 0 4 0;
#X connect 2 0 3 0;
#X connect 3 0 1 0;
#X restore -40 270 pd delRead;
#X obj 5 237 r \$0-lookahead;
#X obj 23 34 inlet~;
#X obj 172 171 clip~ 0 1;
#X obj 172 233 lop~;
#X obj 193 206 r \$0-response;
#X obj 157 270 *~;
#X obj 222 27 r \$0-rmspeak;
#X obj 222 56 t f f;
#X obj 224 86 == 0;
#X obj 257 257 r \$0-gain;
#X obj 257 284 pack f 5;
#X obj 257 312 line~;
#X obj 157 302 *~;
#X obj 157 338 outlet~;
#X obj 382 2 inlet;
#X obj 382 33 t a a;
#X obj 382 78 route threshold ratio response gain rmspeak lookahead;
#X obj 382 367 + 100;
#X obj 382 393 dbtorms;
#X obj 382 425 s \$0-thresh;
#X obj 434 297 swap 1;
#X obj 434 327 /;
#X obj 434 352 s \$0-ratio;
#X obj 487 214 swap 1000;
#X obj 487 241 /;
#X obj 487 275 s \$0-response;
#X obj 539 120 + 100;
#X obj 539 146 dbtorms;
#X obj 593 124 s \$0-rmspeak;
#X obj 644 100 s \$0-lookahead;
#X obj 539 178 s \$0-gain;
#N canvas 802 332 450 300 init 0;
#X obj 29 4 loadbang;
#X obj 23 191 f \$1;
#X msg 24 243 threshold \$1;
#X obj 42 158 f \$2;
#X msg 62 206 ratio \$1;
#X msg 94 175 response \$1;
#X obj 93 119 f \$3;
#X msg 128 139 gain \$1;
#X obj 127 83 f \$4;
#X obj 227 85 f \$5;
#X msg 221 125 rmspeak \$1;
#X obj 310 62 f \$6;
#X msg 310 118 lookahead \$1;
#X obj 187 272 outlet;
#X obj 24 34 t b b b b b b;
#X connect 0 0 14 0;
#X connect 1 0 2 0;
#X connect 2 0 13 0;
#X connect 3 0 4 0;
#X connect 4 0 13 0;
#X connect 5 0 13 0;
#X connect 6 0 5 0;
#X connect 7 0 13 0;
#X connect 8 0 7 0;
#X connect 9 0 10 0;
#X connect 10 0 13 0;
#X connect 11 0 12 0;
#X connect 12 0 13 0;
#X connect 14 0 1 0;
#X connect 14 1 3 0;
#X connect 14 2 6 0;
#X connect 14 3 8 0;
#X connect 14 4 9 0;
#X connect 14 5 11 0;
#X restore 508 24 pd init;
#X connect 0 0 6 0;
#X connect 1 0 6 0;
#X connect 2 0 3 0;
#X connect 3 0 9 0;
#X connect 4 0 3 1;
#X connect 5 0 0 0;
#X connect 5 0 1 0;
#X connect 5 0 2 0;
#X connect 6 0 7 0;
#X connect 7 0 9 1;
#X connect 8 0 7 1;
#X connect 9 0 16 0;
#X connect 10 0 11 0;
#X connect 11 0 12 0;
#X connect 11 1 1 1;
#X connect 12 0 0 1;
#X connect 13 0 14 0;
#X connect 14 0 15 0;
#X connect 15 0 16 1;
#X connect 16 0 17 0;
#X connect 18 0 19 0;
#X connect 19 0 20 0;
#X connect 20 0 21 0;
#X connect 20 1 24 0;
#X connect 20 2 27 0;
#X connect 20 3 30 0;
#X connect 20 4 32 0;
#X connect 20 5 33 0;
#X connect 21 0 22 0;
#X connect 22 0 23 0;
#X connect 24 0 25 0;
#X connect 24 1 25 1;
#X connect 25 0 26 0;
#X connect 27 0 28 0;
#X connect 27 1 28 1;
#X connect 28 0 29 0;
#X connect 30 0 31 0;
#X connect 31 0 34 0;
#X connect 35 0 19 0;
#X restore 577 796 pd compressor1~;
#N canvas 805 41 815 495 compressor2~ 0;
#N canvas 828 148 467 406 rms 0;
#X obj 45 32 inlet~;
#X obj 45 59 env~ 512;
#X obj 45 84 dbtorms~;
#X obj 45 140 -~;
#X obj 45 205 *~;
#X obj 45 250 +~;
#X obj 158 278 /~;
#X obj 60 117 r \$0-thresh;
#X obj 60 181 r \$0-ratio;
#X obj 61 228 r \$0-thresh;
#X obj 159 338 outlet~;
#X obj 175 112 +~ 0;
#X obj 213 36 inlet;
#X obj 213 66 switch~;
#X connect 0 0 1 0;
#X connect 1 0 2 0;
#X connect 2 0 3 0;
#X connect 2 0 11 0;
#X connect 3 0 4 0;
#X connect 4 0 5 0;
#X connect 5 0 6 0;
#X connect 6 0 10 0;
#X connect 7 0 3 1;
#X connect 8 0 4 1;
#X connect 9 0 5 1;
#X connect 11 0 6 1;
#X connect 12 0 13 0;
#X restore 172 114 pd rms;
#N canvas 828 148 467 406 peak 0;
#X obj 45 32 inlet~;
#X obj 45 59 env~ 512;
#X obj 45 140 -~;
#X obj 45 205 *~;
#X obj 45 250 +~;
#X obj 158 278 /~;
#X obj 60 117 r \$0-thresh;
#X obj 60 181 r \$0-ratio;
#X obj 61 228 r \$0-thresh;
#X obj 161 312 outlet~;
#X obj 45 84 abs~;
#X obj 175 110 +~ 0;
#X obj 213 36 inlet;
#X obj 213 66 switch~;
#X connect 0 0 1 0;
#X connect 1 0 10 0;
#X connect 2 0 3 0;
#X connect 3 0 4 0;
#X connect 4 0 5 0;
#X connect 5 0 9 0;
#X connect 6 0 2 1;
#X connect 7 0 3 1;
#X connect 8 0 4 1;
#X connect 10 0 2 0;
#X connect 10 0 11 0;
#X connect 11 0 5 1;
#X connect 12 0 13 0;
#X restore 219 114 pd peak;
#N canvas 0 22 450 300 delWrite 0;
#X obj 24 23 inlet~;
#X obj 24 45 delwrite~ \$0-comp 500;
#X obj 25 99 outlet~;
#X connect 0 0 1 0;
#X restore -39 196 pd delWrite;
#N canvas 0 22 450 300 delRead 0;
#X obj 34 35 inlet~;
#X obj 34 84 delread~ \$0-comp 0;
#X obj 131 33 inlet;
#X floatatom 131 62 5 0 0 0 - - - 0;
#X obj 33 139 outlet~;
#X connect 1 0 4 0;
#X connect 2 0 3 0;
#X connect 3 0 1 0;
#X restore -40 270 pd delRead;
#X obj 5 237 r \$0-lookahead;
#X obj 23 34 inlet~;
#X obj 172 171 clip~ 0 1;
#X obj 172 233 lop~;
#X obj 193 206 r \$0-response;
#X obj 157 270 *~;
#X obj 222 27 r \$0-rmspeak;
#X obj 222 56 t f f;
#X obj 224 86 == 0;
#X obj 257 257 r \$0-gain;
#X obj 257 284 pack f 5;
#X obj 257 312 line~;
#X obj 157 302 *~;
#X obj 157 338 outlet~;
#X obj 382 2 inlet;
#X obj 382 33 t a a;
#X obj 382 78 route threshold ratio response gain rmspeak lookahead;
#X obj 382 367 + 100;
#X obj 382 393 dbtorms;
#X obj 382 425 s \$0-thresh;
#X obj 434 297 swap 1;
#X obj 434 327 /;
#X obj 434 352 s \$0-ratio;
#X obj 487 214 swap 1000;
#X obj 487 241 /;
#X obj 487 275 s \$0-response;
#X obj 539 120 + 100;
#X obj 539 146 dbtorms;
#X obj 593 124 s \$0-rmspeak;
#X obj 644 100 s \$0-lookahead;
#X obj 539 178 s \$0-gain;
#N canvas 802 332 450 300 init 0;
#X obj 29 4 loadbang;
#X obj 23 191 f \$1;
#X msg 24 243 threshold \$1;
#X obj 42 158 f \$2;
#X msg 62 206 ratio \$1;
#X msg 94 175 response \$1;
#X obj 93 119 f \$3;
#X msg 128 139 gain \$1;
#X obj 127 83 f \$4;
#X obj 227 85 f \$5;
#X msg 221 125 rmspeak \$1;
#X obj 310 62 f \$6;
#X msg 310 118 lookahead \$1;
#X obj 187 272 outlet;
#X obj 24 34 t b b b b b b;
#X connect 0 0 14 0;
#X connect 1 0 2 0;
#X connect 2 0 13 0;
#X connect 3 0 4 0;
#X connect 4 0 13 0;
#X connect 5 0 13 0;
#X connect 6 0 5 0;
#X connect 7 0 13 0;
#X connect 8 0 7 0;
#X connect 9 0 10 0;
#X connect 10 0 13 0;
#X connect 11 0 12 0;
#X connect 12 0 13 0;
#X connect 14 0 1 0;
#X connect 14 1 3 0;
#X connect 14 2 6 0;
#X connect 14 3 8 0;
#X connect 14 4 9 0;
#X connect 14 5 11 0;
#X restore 508 24 pd init;
#X connect 0 0 6 0;
#X connect 1 0 6 0;
#X connect 2 0 3 0;
#X connect 3 0 9 0;
#X connect 4 0 3 1;
#X connect 5 0 0 0;
#X connect 5 0 1 0;
#X connect 5 0 2 0;
#X connect 6 0 7 0;
#X connect 7 0 9 1;
#X connect 8 0 7 1;
#X connect 9 0 16 0;
#X connect 10 0 11 0;
#X connect 11 0 12 0;
#X connect 11 1 1 1;
#X connect 12 0 0 1;
#X connect 13 0 14 0;
#X connect 14 0 15 0;
#X connect 15 0 16 1;
#X connect 16 0 17 0;
#X connect 18 0 19 0;
#X connect 19 0 20 0;
#X connect 20 0 21 0;
#X connect 20 1 24 0;
#X connect 20 2 27 0;
#X connect 20 3 30 0;
#X connect 20 4 32 0;
#X connect 20 5 33 0;
#X connect 21 0 22 0;
#X connect 22 0 23 0;
#X connect 24 0 25 0;
#X connect 24 1 25 1;
#X connect 25 0 26 0;
#X connect 27 0 28 0;
#X connect 27 1 28 1;
#X connect 28 0 29 0;
#X connect 30 0 31 0;
#X connect 31 0 34 0;
#X connect 35 0 19 0;
#X restore 696 797 pd compressor2~;
#X msg 696 685 threshold -12 \, ratio 40 \, response 40 \, gain 0 \, rmspeak 0 \, lookahead 0;
#X obj 1507 38 s \$0-ipokebuf2;
#X obj 1300 305 + 3;
#X obj 1442 276 * 0.3;
#X msg -282 289 open birbs.wav \, start;
#X msg -242 318 stop;
#X obj -282 347 writesf~ 2;
#X msg -193 -150 \; pd dsp 1;
#X obj 625 137 r notes;
#X obj 625 166 select 72 74 76 77 79 81 83;
#X obj 823 238 select 73 75 78 80 82;
#X obj 626 304 spigot;
#X msg 665 275 1;
#X msg 703 275 0;
#X obj 822 296 spigot;
#X msg 861 267 1;
#X msg 967 266 0;
#X obj 822 325 expr ($f1 - 73) / 10 + 0.05;
#X obj 626 333 expr ($f1 - 72) / 10;
#X obj 626 362 clip 0 1;
#X obj 68 -122 sel 60 62 64;
#X obj 68 -151 r notes;
#X obj 471 -151 r knob1;
#X obj 624 -151 r knob2;
#X obj 787 -151 r knob3;
#X obj 940 -151 r knob4;
#X obj 577 855 throw~ outL;
#X obj 577 826 *~ 0.5;
#X obj 696 826 *~ 0.5;
#X obj 95 -64 s stopped;
#X obj 88 84 r stopped;
#X obj 67 198 r stopped;
#X obj 122 -93 s started;
#X obj 144 198 r started;
#X obj 1475 159 r stopped;
#X obj 1166 159 r started;
#X obj 68 -35 s record;
#X obj 68 26 r record;
#X text 64 -173 "record" (C0) \, "stop" (D0) \, and "playback" (E0);
#X obj 386 227 r speed;
#X obj 471 -93 s speed;
#X obj 624 -93 s gap;
#X obj 1442 247 r feedback;
#X obj 940 -93 s feedback;
#X obj 735 -190 loadbang;
#X msg -193 -50 \; screenLine1 1: Speed \; screenLine2 2: Gap \; screenLine3 3: Delay \; screenLine4 4: Feedback \; screenLine5 Pitch :: Verb;
#X obj -283 -179 loadbang;
#X obj -283 49 tgl 19 0 empty empty empty 0 -10 0 12 #fcfcfc #000000 #000000 0 1;
#X obj -283 78 metro 500;
#X obj -192 78 metro 100;
#X obj -192 102 s birb-eval;
#X obj -283 102 s birb-sync;
#X obj 183 598 loadbang;
#X msg 183 622 2;
#X obj 183 545 phasor~ 440;
#X obj 463 603 r gap;
#X obj 463 632 * 0.9;
#X msg 624 23 2: Gap \$1;
#X obj 624 52 s screenLine2;
#X obj 624 -35 * 100;
#X obj 624 -6 i;
#X obj 624 -64 r gap;
#X obj 274 663 birb-voice;
#X obj 358 663 birb-voice;
#X obj 1300 247 r delaymod;
#X obj 787 -93 s delaymod;
#X obj 626 420 birb-pitch-shifter G09-delA;
#X obj 829 420 birb-pitch-shifter G09-delB;
#N canvas 1 51 420 192 searchpatch 0;
#X obj 36 95 declare -path bin;
#X obj 36 129 declare -path bin64;
#X text 34 31 Find path to [ipoke~] executables. If you want to use [ipoke~] in your own patches \, copy or move the executable for your platform in Pd's 'extra' directory.;
#X restore -283 -208 pd searchpatch;
#X text -283 679 Organelle port - Pedro Figueiredo - 2024;
#X obj -282 231 r notes;
#X obj -282 260 select 61 63;
#X text -284 184 start rendering: C#0;
#X text -284 210 stop rendering: D#0;
#X obj 144 342 expr $f2 / $f1;
#X obj 290 291 loadbang;
#X obj 290 315 samplerate~;
#X obj 696 855 throw~ outR;
#X obj 471 -35 * 100;
#X obj 471 -6 i;
#X obj 471 -64 r speed;
#X msg 471 23 1: Speed \$1;
#X obj 471 52 s screenLine1;
#X obj 787 -35 * 100;
#X obj 787 -6 i;
#X obj 787 -64 r delaymod;
#X msg 787 23 3: Delay \$1;
#X obj 787 52 s screenLine3;
#X obj 940 -35 * 100;
#X obj 940 -64 r feedback;
#X obj 940 -6 i;
#X msg 940 23 4: Feedback \$1;
#X obj 940 52 s screenLine4;
#X obj 626 449 s~ \$0-pshift-delA;
#X obj 829 449 s~ \$0-pshift-delB;
#X obj 1148 334 r~ \$0-pshift-delA;
#X obj 1459 334 r~ \$0-pshift-delB;
#X obj 822 354 s reverbmod;
#X obj 1096 499 r reverbmod;
#X text 983 237 REVERB;
#X obj 1158 363 birb-poke~ \$0-ipokebuf1 \$0-draw \$0-slider;
#X obj 1469 363 birb-poke~ \$0-ipokebuf2 \$0-draw \$0-slider;
#X obj 1459 421 s~ verbB;
#X obj 1148 421 s~ verbA;
#X obj 1168 624 r~ verbB;
#X obj 1151 595 r~ verbA;
#X obj 1382 499 loadbang;
#X obj 1151 682 s~ comp1;
#X obj 1239 682 s~ comp2;
#X obj 577 768 r~ comp1;
#X obj 696 768 r~ comp2;
#N canvas 220 620 450 300 update-screen 0;
#X obj 34 26 inlet;
#X obj 103 26 inlet;
#X obj 34 55 f;
#X obj 103 55 f;
#X obj 103 84 t b f;
#X obj 34 123 pack;
#X msg 34 152 P \$1 :: V \$2;
#X obj 34 181 s screenLine5;
#X connect 0 0 2 0;
#X connect 1 0 3 0;
#X connect 2 0 5 0;
#X connect 3 0 4 0;
#X connect 4 0 5 0;
#X connect 4 1 5 1;
#X connect 5 0 6 0;
#X connect 6 0 7 0;
#X restore 698 382 pd update-screen;
#X obj 626 246 r pitchvalue;
#X obj 848 166 s pitchvalue;
#X connect 0 0 22 0;
#X connect 0 1 23 0;
#X connect 1 0 130 0;
#X connect 1 1 130 2;
#X connect 2 0 1 0;
#X connect 2 1 0 0;
#X connect 3 0 4 0;
#X connect 5 0 4 0;
#X connect 6 0 4 0;
#X connect 8 0 9 0;
#X connect 9 0 11 1;
#X connect 9 0 142 0;
#X connect 10 0 11 0;
#X connect 11 0 12 0;
#X connect 12 0 57 0;
#X connect 13 0 9 0;
#X connect 14 0 10 0;
#X connect 15 0 14 0;
#X connect 15 1 14 1;
#X connect 16 0 15 0;
#X connect 18 0 109 0;
#X connect 19 0 8 0;
#X connect 20 0 108 0;
#X connect 21 0 3 0;
#X connect 22 0 131 0;
#X connect 23 0 131 2;
#X connect 24 0 28 2;
#X connect 25 0 28 3;
#X connect 26 0 28 5;
#X connect 27 0 28 4;
#X connect 28 0 175 0;
#X connect 28 1 176 0;
#X connect 29 0 24 0;
#X connect 29 0 26 0;
#X connect 30 0 27 0;
#X connect 31 0 25 0;
#X connect 32 0 54 0;
#X connect 33 0 62 0;
#X connect 34 0 134 0;
#X connect 34 0 135 0;
#X connect 38 0 16 0;
#X connect 39 0 38 0;
#X connect 40 0 41 0;
#X connect 41 0 59 1;
#X connect 41 0 60 1;
#X connect 42 0 59 1;
#X connect 42 0 60 1;
#X connect 44 0 50 0;
#X connect 48 0 69 0;
#X connect 51 0 70 0;
#X connect 52 0 133 0;
#X connect 54 0 29 0;
#X connect 56 0 111 0;
#X connect 57 4 2 0;
#X connect 59 0 171 0;
#X connect 60 0 170 0;
#X connect 61 0 52 0;
#X connect 61 0 56 0;
#X connect 62 0 34 0;
#X connect 63 0 20 0;
#X connect 64 0 18 0;
#X connect 65 0 68 0;
#X connect 66 0 95 0;
#X connect 67 0 96 0;
#X connect 68 0 66 1;
#X connect 68 0 67 1;
#X connect 70 0 168 1;
#X connect 70 0 169 1;
#X connect 71 0 168 2;
#X connect 71 0 169 2;
#X connect 72 0 74 0;
#X connect 73 0 74 0;
#X connect 76 0 77 0;
#X connect 76 0 181 0;
#X connect 77 0 80 0;
#X connect 77 1 80 0;
#X connect 77 2 80 0;
#X connect 77 3 80 0;
#X connect 77 4 80 0;
#X connect 77 5 80 0;
#X connect 77 6 80 0;
#X connect 77 7 78 0;
#X connect 77 7 81 0;
#X connect 77 7 82 0;
#X connect 78 0 83 0;
#X connect 78 1 83 0;
#X connect 78 2 83 0;
#X connect 78 3 83 0;
#X connect 78 4 83 0;
#X connect 78 5 84 0;
#X connect 79 0 86 0;
#X connect 80 0 79 1;
#X connect 81 0 79 1;
#X connect 82 0 85 0;
#X connect 83 0 82 1;
#X connect 84 0 82 1;
#X connect 85 0 165 0;
#X connect 85 0 179 1;
#X connect 86 0 87 0;
#X connect 87 0 34 0;
#X connect 87 0 179 0;
#X connect 88 0 104 0;
#X connect 88 1 97 0;
#X connect 88 2 100 0;
#X connect 89 0 88 0;
#X connect 90 0 20 0;
#X connect 91 0 18 0;
#X connect 92 0 52 0;
#X connect 93 0 56 0;
#X connect 95 0 94 0;
#X connect 96 0 145 0;
#X connect 98 0 6 0;
#X connect 99 0 13 0;
#X connect 101 0 19 0;
#X connect 102 0 42 0;
#X connect 103 0 41 0;
#X connect 105 0 5 0;
#X connect 107 0 39 1;
#X connect 110 0 71 0;
#X connect 112 0 63 0;
#X connect 112 0 64 0;
#X connect 112 0 61 0;
#X connect 114 0 75 0;
#X connect 114 0 58 0;
#X connect 114 0 113 0;
#X connect 114 0 115 0;
#X connect 115 0 116 0;
#X connect 115 0 117 0;
#X connect 116 0 119 0;
#X connect 117 0 118 0;
#X connect 120 0 121 0;
#X connect 121 0 131 1;
#X connect 122 0 130 3;
#X connect 122 0 131 3;
#X connect 123 0 124 0;
#X connect 124 0 130 4;
#X connect 124 0 131 4;
#X connect 125 0 126 0;
#X connect 127 0 128 0;
#X connect 128 0 125 0;
#X connect 129 0 127 0;
#X connect 130 0 35 0;
#X connect 131 0 36 0;
#X connect 132 0 51 0;
#X connect 134 0 161 0;
#X connect 135 0 162 0;
#X connect 138 0 139 0;
#X connect 139 0 72 0;
#X connect 139 1 73 0;
#X connect 142 0 14 0;
#X connect 143 0 144 0;
#X connect 144 0 142 1;
#X connect 146 0 147 0;
#X connect 147 0 149 0;
#X connect 148 0 146 0;
#X connect 149 0 150 0;
#X connect 151 0 152 0;
#X connect 152 0 154 0;
#X connect 153 0 151 0;
#X connect 154 0 155 0;
#X connect 156 0 158 0;
#X connect 157 0 156 0;
#X connect 158 0 159 0;
#X connect 159 0 160 0;
#X connect 163 0 59 0;
#X connect 163 0 168 0;
#X connect 164 0 60 0;
#X connect 164 0 169 0;
#X connect 166 0 29 0;
#X connect 168 0 59 0;
#X connect 169 0 60 0;
#X connect 172 0 28 1;
#X connect 173 0 28 0;
#X connect 174 0 31 0;
#X connect 174 0 30 0;
#X connect 177 0 66 0;
#X connect 178 0 67 0;
#X connect 180 0 79 0;
